<?xml version="1.0" encoding="utf-8"?>
<!-- Original source used as inspiration: "pokedex-animation" by "Karina Mejía" at "pinterest.com" -->
<!-- https://www.pinterest.com.mx/pin/697776536003357383 -->
<!-- Original size: 500x500 -->
<svg width="512" height="512"
     viewBox="0 0 666.66496 666.66496"
     shape-rendering="geometricPrecision"
     xmlns="http://www.w3.org/2000/svg">
	<!-- The background color -->
<!--	<rect id="bg" width="666.66496" height="666.66496" fill="#f3e7af" />-->
	<!-- The Poké Balls -->
	<g id="poke-balls">
		<g id="poke-ball-01">
			<ellipse cx="28.615437" cy="113.97536" rx="7.3607206" ry="7.4038048"
				 fill="#e03e3e" stroke="black"
				 stroke-width="0.2" stroke-linecap="round" stroke-linejoin="round" />
			<path fill="white" stroke="black"
			      stroke-width="0.2" stroke-linecap="round" stroke-linejoin="round"
			      d="m 32.421875,120.3125 -11.167969,-6.33789 a 7.3607206,7.4038048 0 0 0 7.361328,7.4043 7.3607206,7.4038048 0 0 0 3.806641,-1.06641 z" />
			<circle cx="25.913317" cy="116.21812" r="2.087008"
				fill="white" stroke="black"
				stroke-width="0.8" stroke-linecap="round" stroke-linejoin="round" />
		</g>
		<g id="poke-ball-02">
			<ellipse cx="256.88068" cy="55.658211" rx="7.2235546" ry="7.3072252"
				 fill="#e03e3e" stroke="black"
				 stroke-width="0.2" stroke-linecap="round" stroke-linejoin="round" />
			<path fill="white" stroke="black"
			      stroke-width="0.2" stroke-linecap="round" stroke-linejoin="round"
			      d="m 262.88672,51.597656 -9.8711,10.234375 a 7.2235546,7.3072252 0 0 0 3.86524,1.132813 7.2235546,7.3072252 0 0 0 7.22266,-7.306641 7.2235546,7.3072252 0 0 0 -1.2168,-4.060547 z" />
			<ellipse cx="259.1846"  cy="54.877636"
				 rx="1.9215249" ry="1.8592024"
				 fill="white" stroke="black"
				 stroke-width="0.8" stroke-linecap="round" stroke-linejoin="round" />
		</g>
		<g id="poke-ball-03">
			<ellipse cx="457.4183"  cy="54.110638" rx="7.3370357" ry="7.566318"
				 fill="#e03e3e" stroke="black"
				 stroke-width="0.2" stroke-linecap="round" stroke-linejoin="round" />
			<path fill="white" stroke="black"
			      stroke-width="0.2" stroke-linecap="round" stroke-linejoin="round"
			      d="m 462.73047,59.328125 -12.57031,-6.326172 a 7.3370357,7.566318 0 0 0 -0.0781,1.109375 7.3370357,7.566318 0 0 0 7.33594,7.566406 7.3370357,7.566318 0 0 0 5.3125,-2.349609 z" />
			<ellipse cx="456.20236" cy="55.513203" rx="2.041702"  ry="2.1055052"
				 fill="white" stroke="black"
				 stroke-width="0.8" stroke-linecap="round" stroke-linejoin="round" />
		</g>
		<g id="poke-ball-04">
			<ellipse cx="601.96094" cy="11.997406" rx="8.9231949" ry="8.8321419"
				 fill="#e03e3e" stroke="black"
				 stroke-width="0.2" stroke-linecap="round" stroke-linejoin="round" />
			<path fill="white" stroke="black"
			      stroke-width="0.2" stroke-linecap="round" stroke-linejoin="round"
			      d="m 609.83008,7.8339844 -14.76563,9.7656246 a 8.9231949,8.8321419 0 0 0 6.89649,3.230469 8.9231949,8.8321419 0 0 0 8.92383,-8.832031 8.9231949,8.8321419 0 0 0 -1.05469,-4.1640626 z" />
			<circle cx="602.95734" cy="11.549238" r="2.7394106"
				fill="white" stroke="black"
				stroke-width="0.8" stroke-linecap="round" stroke-linejoin="round" />
		</g>
		<g id="poke-ball-05">
			<circle cx="172.07091" cy="186.66235" r="7.3444133"
				fill="#e03e3e" stroke="black"
				stroke-width="0.2" stroke-linecap="round" stroke-linejoin="round" />
			<path fill="white" stroke="black"
			      stroke-width="0.2" stroke-linecap="round" stroke-linejoin="round"
			      d="m 177.34375,191.77344 -12.54102,-6.16406 a 7.3444133,7.3444133 0 0 0 -0.0762,1.05273 7.3444133,7.3444133 0 0 0 7.34375,7.34375 7.3444133,7.3444133 0 0 0 5.27344,-2.23242 z" />
			<circle cx="171.26028" cy="187.95938" r="2.3778644"
				fill="white" stroke="black"
				stroke-width="0.8" stroke-linecap="round" stroke-linejoin="round" />
		</g>
		<g id="poke-ball-06">
			<circle cx="292.22037" cy="160.53587" r="6.8784709"
				fill="#e03e3e" stroke="black"
				stroke-width="0.2" stroke-linecap="round" stroke-linejoin="round" />
			<path fill="white" stroke="black"
			      stroke-width="0.2" stroke-linecap="round" stroke-linejoin="round"
			      d="m 292.2207,153.6582 a 6.8784709,6.8784709 0 0 0 -6.8789,6.87696 6.8784709,6.8784709 0 0 0 0.46289,2.47656 l 12.63281,-5.41602 a 6.8784709,6.8784709 0 0 0 -6.2168,-3.9375 z" />
			<circle cx="293.00375" cy="159.56143" r="2.1313181"
				fill="white" stroke="black"
				stroke-width="0.8" stroke-linecap="round" stroke-linejoin="round" />
		</g>
		<g id="poke-ball-07">
			<circle cx="504.48553" cy="195.09296" r="8.0523129"
				fill="#e03e3e" stroke="black"
				stroke-width="0.2" stroke-linecap="round" stroke-linejoin="round" />
			<path fill="white" stroke="black"
			      stroke-width="0.2" stroke-linecap="round" stroke-linejoin="round"
			      d="m 511.99805,192.19531 -15.02539,5.79688 a 8.0523129,8.0523129 0 0 0 7.51367,5.15234 8.0523129,8.0523129 0 0 0 8.05078,-8.05078 8.0523129,8.0523129 0 0 0 -0.53906,-2.89844 z" />
			<circle cx="505.59338" cy="194.25531" r="2.8912668"
				fill="white" stroke="black"
				stroke-width="0.8" stroke-linecap="round" stroke-linejoin="round" />
		</g>
		<g id="poke-ball-08">
			<circle cx="633.07935" cy="193.28253" r="7.5700798"
				fill="#e03e3e" stroke="black"
				stroke-width="0.2" stroke-linecap="round" stroke-linejoin="round" />
			<path fill="white" stroke="black"
			      stroke-width="0.2" stroke-linecap="round" stroke-linejoin="round"
			      d="m 639.06055,188.64258 c -1.44859,0.0973 -2.86678,0.24296 -4.15235,0.5664 -1.52807,0.38446 -2.93161,0.93097 -4.18164,1.64454 -1.25003,0.71356 -2.34743,1.59345 -3.26758,2.64648 -0.61197,0.70035 -1.01593,1.59491 -1.46289,2.44922 a 7.5700798,7.5700798 0 0 0 7.08399,4.9043 7.5700798,7.5700798 0 0 0 7.57031,-7.57032 7.5700798,7.5700798 0 0 0 -1.58984,-4.64062 z" />
			<ellipse cx="631.05273" cy="191.60724"
				 rx="2.114255"  ry="2.2269664"
				 fill="white" stroke="black"
				 stroke-width="0.8" stroke-linecap="round" stroke-linejoin="round" />
		</g>
		<g id="poke-ball-09">
			<circle cx="134.78168" cy="273.1842" r="7.3322954"
				fill="#e03e3e" stroke="black"
				stroke-width="0.2" stroke-linecap="round" stroke-linejoin="round" />
			<path fill="white" stroke="black"
			      stroke-width="0.2" stroke-linecap="round" stroke-linejoin="round"
			      d="m 141.16211,269.56836 -11.43555,8.92578 a 7.3322954,7.3322954 0 0 0 5.05469,2.02148 7.3322954,7.3322954 0 0 0 7.33203,-7.33203 7.3322954,7.3322954 0 0 0 -0.95117,-3.61523 z" />
			<circle cx="134.9438" cy="273.29227" r="2.1664741"
				fill="white" stroke="black"
				stroke-width="0.8" stroke-linecap="round" stroke-linejoin="round" />
		</g>
		<g id="poke-ball-10">
			<circle cx="242.48811" cy="318.25552" r="7.7280593"
				fill="#e03e3e" stroke="black"
				stroke-width="0.2" stroke-linecap="round" stroke-linejoin="round" />
			<path fill="white" stroke="black"
			      stroke-width="0.2" stroke-linecap="round" stroke-linejoin="round"
			      d="m 248.46094,323.1582 -12.95899,-8.20703 a 7.7280593,7.7280593 0 0 0 -0.74218,3.30469 7.7280593,7.7280593 0 0 0 7.72851,7.72852 7.7280593,7.7280593 0 0 0 5.97266,-2.82618 z" />
			<circle cx="241.08798" cy="318.74902" r="1.9526198"
				fill="white" stroke="black"
				stroke-width="0.8" stroke-linecap="round" stroke-linejoin="round" />
		</g>
		<g id="poke-ball-11">
			<circle cx="399.40988" cy="316.06573" r="7.3370357"
				fill="#e03e3e" stroke="black"
				stroke-width="0.2" stroke-linecap="round" stroke-linejoin="round" />
			<path fill="white" stroke="black"
			      stroke-width="0.2" stroke-linecap="round" stroke-linejoin="round"
			      d="m 399.04883,308.73828 -0.89258,14.55469 a 7.3370357,7.3370357 0 0 0 1.25391,0.10937 7.3370357,7.3370357 0 0 0 7.33593,-7.33593 7.3370357,7.3370357 0 0 0 -7.33593,-7.33789 7.3370357,7.3370357 0 0 0 -0.36133,0.01 z" />
			<circle cx="398.49289" cy="315.83881" r="2.0662971"
				fill="white" stroke="black"
				stroke-width="0.8" stroke-linecap="round" stroke-linejoin="round" />
		</g>
		<g id="poke-ball-12">
			<circle cx="589.37036" cy="359.74405" r="8.7424135"
				fill="#e03e3e" stroke="black"
				stroke-width="0.2" stroke-linecap="round" stroke-linejoin="round" />
			<path fill="white" stroke="black"
			      stroke-width="0.2" stroke-linecap="round" stroke-linejoin="round"
			      d="M 597.60156,356.79883 582.75,365.45312 a 8.7424135,8.7424135 0 0 0 6.62109,3.03321 8.7424135,8.7424135 0 0 0 8.74219,-8.74219 8.7424135,8.7424135 0 0 0 -0.51172,-2.94531 z" />
			<circle cx="590.8606" cy="360.01151" r="2.7548831"
				fill="white" stroke="black"
				stroke-width="0.8" stroke-linecap="round" stroke-linejoin="round" />
		</g>
		<g id="poke-ball-13">
			<circle cx="31.086866" cy="388.80557" r="7.8911347"
				fill="#e03e3e" stroke="black"
				stroke-width="0.2" stroke-linecap="round" stroke-linejoin="round" />
			<path fill="white" stroke="black"
			      stroke-width="0.2" stroke-linecap="round" stroke-linejoin="round"
			      d="m 37.03125,383.61523 c -1.467643,0.14275 -2.906656,0.31669 -4.203125,0.64844 -1.54766,0.39603 -2.959766,0.9418 -4.203125,1.67383 -1.243359,0.73203 -2.318054,1.65044 -3.191406,2.79102 -0.690148,0.90131 -1.144039,2.06277 -1.566406,3.25976 a 7.8911347,7.8911347 0 0 0 7.21875,4.70899 7.8911347,7.8911347 0 0 0 7.892578,-7.89258 7.8911347,7.8911347 0 0 0 -1.947266,-5.18946 z" />
			<circle cx="28.81315" cy="386.49365" r="2.3310373"
				fill="white" stroke="black"
				stroke-width="0.8" stroke-linecap="round" stroke-linejoin="round" />
		</g>
		<g id="poke-ball-14">
			<circle cx="88.961555" cy="471.21347" r="9.2095079"
				fill="#e03e3e" stroke="black"
				stroke-width="0.2" stroke-linecap="round" stroke-linejoin="round" />
			<path fill="white" stroke="black"
			      stroke-width="0.2" stroke-linecap="round" stroke-linejoin="round"
			      d="m 91.199219,480.14648 -10.25,-13.47265 a 9.2095079,9.2095079 0 0 0 -1.197266,4.53906 9.2095079,9.2095079 0 0 0 9.208985,9.21094 9.2095079,9.2095079 0 0 0 2.238281,-0.27735 z" />
			<circle cx="85.713394" cy="472.13062" r="2.4869738"
				fill="white" stroke="black"
				stroke-width="0.8" stroke-linecap="round" stroke-linejoin="round" />
		</g>
		<g id="poke-ball-15">
			<circle cx="633.07935" cy="193.28253" r="7.5700798"
				fill="#e03e3e" stroke="black"
				stroke-width="0.2" stroke-linecap="round" stroke-linejoin="round" />
			<path fill="white" stroke="black"
			      stroke-width="0.2" stroke-linecap="round" stroke-linejoin="round"
			      d="m 639.06055,188.64258 c -1.44859,0.0973 -2.86678,0.24296 -4.15235,0.5664 -1.52807,0.38446 -2.93161,0.93097 -4.18164,1.64454 -1.25003,0.71356 -2.34743,1.59345 -3.26758,2.64648 -0.61197,0.70035 -1.01593,1.59491 -1.46289,2.44922 a 7.5700798,7.5700798 0 0 0 7.08399,4.9043 7.5700798,7.5700798 0 0 0 7.57031,-7.57032 7.5700798,7.5700798 0 0 0 -1.58984,-4.64062 z" />
			<ellipse cx="631.05273" cy="191.60724" rx="2.114255"  ry="2.2269664"
				 fill="white" stroke="black"
				 stroke-width="0.8" stroke-linecap="round" stroke-linejoin="round" />
		</g>
		<g id="poke-ball-16">
			<circle cx="134.78168" cy="273.1842" r="7.3322954"
				fill="#e03e3e" stroke="black"
				stroke-width="0.2" stroke-linecap="round" stroke-linejoin="round" />
			<path fill="white" stroke="black"
			      stroke-width="0.2" stroke-linecap="round" stroke-linejoin="round"
			      d="m 141.16211,269.56836 -11.43555,8.92578 a 7.3322954,7.3322954 0 0 0 5.05469,2.02148 7.3322954,7.3322954 0 0 0 7.33203,-7.33203 7.3322954,7.3322954 0 0 0 -0.95117,-3.61523 z" />
			<circle cx="134.9438" cy="273.29227" r="2.1664741"
				fill="white" stroke="black"
				stroke-width="0.8" stroke-linecap="round" stroke-linejoin="round" />
		</g>
		<g id="poke-ball-17">
			<circle cx="242.48811" cy="318.25552" r="7.7280593"
				fill="#e03e3e" stroke="black"
				stroke-width="0.2" stroke-linecap="round" stroke-linejoin="round" />
			<path fill="white" stroke="black"
			      stroke-width="0.2" stroke-linecap="round" stroke-linejoin="round"
			      d="m 248.46094,323.1582 -12.95899,-8.20703 a 7.7280593,7.7280593 0 0 0 -0.74218,3.30469 7.7280593,7.7280593 0 0 0 7.72851,7.72852 7.7280593,7.7280593 0 0 0 5.97266,-2.82618 z" />
			<circle cx="241.08798" cy="318.74902" r="1.9526198"
				fill="white" stroke="black"
				stroke-width="0.8" stroke-linecap="round" stroke-linejoin="round" />
		</g>
		<g id="poke-ball-18">
			<circle cx="399.40988" cy="316.06573" r="7.3370357"
				fill="#e03e3e" stroke="black"
				stroke-width="0.2" stroke-linecap="round" stroke-linejoin="round" />
			<path fill="white" stroke="black"
			      stroke-width="0.2" stroke-linecap="round" stroke-linejoin="round"
			      d="m 399.04883,308.73828 -0.89258,14.55469 a 7.3370357,7.3370357 0 0 0 1.25391,0.10937 7.3370357,7.3370357 0 0 0 7.33593,-7.33593 7.3370357,7.3370357 0 0 0 -7.33593,-7.33789 7.3370357,7.3370357 0 0 0 -0.36133,0.01 z" />
			<circle cx="398.49289" cy="315.83881" r="2.0662971"
				fill="white" stroke="black"
				stroke-width="0.8" stroke-linecap="round" stroke-linejoin="round" />
		</g>
		<g id="poke-ball-19">
			<circle cx="589.37036" cy="359.74405" r="8.7424135"
				fill="#e03e3e" stroke="black"
				stroke-width="0.2" stroke-linecap="round" stroke-linejoin="round" />
			<path fill="white" stroke="black"
			      stroke-width="0.2" stroke-linecap="round" stroke-linejoin="round"
			      d="M 597.60156,356.79883 582.75,365.45312 a 8.7424135,8.7424135 0 0 0 6.62109,3.03321 8.7424135,8.7424135 0 0 0 8.74219,-8.74219 8.7424135,8.7424135 0 0 0 -0.51172,-2.94531 z" />
			<circle cx="590.8606" cy="360.01151" r="2.7548831"
				fill="white" stroke="black"
				stroke-width="0.8" stroke-linecap="round" stroke-linejoin="round" />
		</g>
		<g id="poke-ball-20">
			<circle cx="31.086866" cy="388.80557" r="7.8911347"
				fill="#e03e3e" stroke="black"
				stroke-width="0.2" stroke-linecap="round" stroke-linejoin="round" />
			<path fill="white" stroke="black"
			      stroke-width="0.2" stroke-linecap="round" stroke-linejoin="round"
			      d="m 37.03125,383.61523 c -1.467643,0.14275 -2.906656,0.31669 -4.203125,0.64844 -1.54766,0.39603 -2.959766,0.9418 -4.203125,1.67383 -1.243359,0.73203 -2.318054,1.65044 -3.191406,2.79102 -0.690148,0.90131 -1.144039,2.06277 -1.566406,3.25976 a 7.8911347,7.8911347 0 0 0 7.21875,4.70899 7.8911347,7.8911347 0 0 0 7.892578,-7.89258 7.8911347,7.8911347 0 0 0 -1.947266,-5.18946 z" />
			<circle cx="28.81315" cy="386.49365" r="2.3310373"
				fill="white" stroke="black"
				stroke-width="0.8" stroke-linecap="round" stroke-linejoin="round" />
		</g>
		<g id="poke-ball-21">
			<circle cx="88.961555" cy="471.21347" r="9.2095079"
				fill="#e03e3e" stroke="black"
				stroke-width="0.2" stroke-linecap="round" stroke-linejoin="round" />
			<path fill="white" stroke="black"
			      stroke-width="0.2" stroke-linecap="round" stroke-linejoin="round"
			      d="m 91.199219,480.14648 -10.25,-13.47265 a 9.2095079,9.2095079 0 0 0 -1.197266,4.53906 9.2095079,9.2095079 0 0 0 9.208985,9.21094 9.2095079,9.2095079 0 0 0 2.238281,-0.27735 z" />
			<circle cx="85.713394" cy="472.13062" r="2.4869738"
				fill="white" stroke="black"
				stroke-width="0.8" stroke-linecap="round" stroke-linejoin="round" />
		</g>
		<g id="poke-ball-22">
			<circle cx="226.47806" cy="453.23987" r="7.0930614"
				fill="#e03e3e" stroke="black"
				stroke-width="0.2" stroke-linecap="round" stroke-linejoin="round" />
			<path fill="white" stroke="black"
			      stroke-width="0.2" stroke-linecap="round" stroke-linejoin="round"
			      d="m 232.81445,450.05078 -11.82031,7.68945 a 7.0930614,7.0930614 0 0 0 5.48438,2.5918 7.0930614,7.0930614 0 0 0 7.09179,-7.0918 7.0930614,7.0930614 0 0 0 -0.75586,-3.18945 z" />
			<circle cx="226.6402" cy="453.86133" r="2.3373325"
				fill="white" stroke="black"
				stroke-width="0.8" stroke-linecap="round" stroke-linejoin="round" />
		</g>
		<g id="poke-ball-23">
			<circle cx="415.47876" cy="464.8891" r="7.7326131"
				fill="#e03e3e" stroke="black"
				stroke-width="0.2" stroke-linecap="round" stroke-linejoin="round" />
			<path fill="white" stroke="black"
			      stroke-width="0.2" stroke-linecap="round" stroke-linejoin="round"
			      d="m 421.17578,459.66406 c -1.49641,0.36075 -2.92758,0.76532 -4.19726,1.27344 -1.44818,0.57955 -2.74944,1.25245 -3.91211,2.01758 -1.16268,0.76512 -2.18504,1.62224 -3.07227,2.5664 -0.65705,0.69922 -1.16499,1.49478 -1.67578,2.28907 a 7.7326131,7.7326131 0 0 0 7.16016,4.81054 7.7326131,7.7326131 0 0 0 7.73242,-7.73242 7.7326131,7.7326131 0 0 0 -2.03516,-5.22461 z" />
			<circle cx="413.28146" cy="463.30322" r="2.1687233"
				fill="white" stroke="black"
				stroke-width="0.8" stroke-linecap="round" stroke-linejoin="round" />
		</g>
		<g id="poke-ball-24">
			<circle cx="506.4274" cy="526.03107" r="7.5588899"
				fill="#e03e3e" stroke="black"
				stroke-width="0.2" stroke-linecap="round" stroke-linejoin="round" />
			<path fill="white" stroke="black"
			      stroke-width="0.2" stroke-linecap="round" stroke-linejoin="round"
			      d="m 511.77148,531.375 -12.6289,-7.35938 a 7.5588899,7.5588899 0 0 0 -0.27344,2.01563 7.5588899,7.5588899 0 0 0 7.55859,7.55859 7.5588899,7.5588899 0 0 0 5.34375,-2.21484 z" />
			<circle cx="504.61227" cy="526.54694" r="2.4456785"
				fill="white" stroke="black"
				stroke-width="0.8" stroke-linecap="round" stroke-linejoin="round" />
		</g>
		<g id="poke-ball-25">
			<circle cx="11.835279" cy="569.60663" r="7.0439124"
				fill="#e03e3e" stroke="black"
				stroke-width="0.2" stroke-linecap="round" stroke-linejoin="round" />
			<path fill="white" stroke="black"
			      stroke-width="0.2" stroke-linecap="round" stroke-linejoin="round"
			      d="m 11.835938,562.5625 a 7.0439124,7.0439124 0 0 0 -7.0449224,7.04492 7.0439124,7.0439124 0 0 0 0.4121094,2.3711 l 13.203125,-4.90625 a 7.0439124,7.0439124 0 0 0 -6.570312,-4.50977 z" />
			<circle cx="12.470278" cy="569.21472" r="2.1752055"
				fill="white" stroke="black"
				stroke-width="0.8" stroke-linecap="round" stroke-linejoin="round" />
		</g>
		<g id="poke-ball-26">
			<circle cx="120.92734" cy="653.74133" r="7.7764935"
				fill="#e03e3e" stroke="black"
				stroke-width="0.2" stroke-linecap="round" stroke-linejoin="round" />
			<path fill="white" stroke="black"
			      stroke-width="0.2" stroke-linecap="round" stroke-linejoin="round"
			      d="m 127.06641,648.96875 c -1.32978,0.13547 -2.71334,0.21893 -3.875,0.51563 -1.79642,0.45881 -3.39479,1.11856 -4.79883,2.0039 -1.40404,0.88534 -2.61333,1.9958 -3.63672,3.35742 -0.40423,0.53783 -0.64802,1.30237 -0.99414,1.91992 a 7.7764935,7.7764935 0 0 0 7.16601,4.75196 7.7764935,7.7764935 0 0 0 7.77539,-7.77539 7.7764935,7.7764935 0 0 0 -1.63671,-4.77344 z" />
			<circle cx="119.13129" cy="651.94531" r="2.2905254"
				fill="white" stroke="black"
				stroke-width="0.8" stroke-linecap="round" stroke-linejoin="round" />
		</g>
		<g id="poke-ball-27">
			<circle cx="232.13901" cy="604.16669" r="9.3763514"
				fill="#e03e3e" stroke="black"
				stroke-width="0.2" stroke-linecap="round" stroke-linejoin="round" />
			<path fill="white" stroke="black"
			      stroke-width="0.2" stroke-linecap="round" stroke-linejoin="round"
			      d="m 232.08789,594.79102 a 9.3763514,9.3763514 0 0 0 -9.32617,9.375 9.3763514,9.3763514 0 0 0 0.18164,1.83007 l 16.72656,-7.41406 a 9.3763514,9.3763514 0 0 0 -7.53125,-3.79101 9.3763514,9.3763514 0 0 0 -0.0508,0 z" />
			<circle cx="230.76093" cy="603.16687" r="3.0711899"
				fill="white" stroke="black"
				stroke-width="0.8" stroke-linecap="round" stroke-linejoin="round" />
		</g>
		<g id="poke-ball-28">
			<circle cx="382.29013" cy="652.30835" r="7.4516768"
				fill="#e03e3e" stroke="black"
				stroke-width="0.2" stroke-linecap="round" stroke-linejoin="round" />
			<path fill="white" stroke="black"
			      stroke-width="0.2" stroke-linecap="round" stroke-linejoin="round"
			      d="m 388.43555,648.0957 c -1.10701,0.16254 -2.32203,0.21904 -3.29883,0.50977 -1.82751,0.54393 -3.43661,1.30405 -4.85742,2.24805 -1.42081,0.94399 -2.6544,2.07089 -3.73242,3.35156 -0.35805,0.42535 -0.60476,0.96014 -0.92969,1.41797 a 7.4516768,7.4516768 0 0 0 6.67383,4.13672 7.4516768,7.4516768 0 0 0 7.45117,-7.45118 7.4516768,7.4516768 0 0 0 -1.30664,-4.21289 z" />
			<circle cx="380.51318" cy="651.02814" r="2.159235"
				fill="white" stroke="black"
				stroke-width="0.8" stroke-linecap="round" stroke-linejoin="round" />
		</g>
	</g>
	<!-- The Charmanders -->
	<g id="charmanders">
		<g id="charmander-1">
			<!-- The body -->
			<path fill="#f36749" stroke="black"
			      stroke-width="0.2" stroke-linecap="round" stroke-linejoin="round"
			      d="M 158.21963,86.419756 C 137.2246,73.299498 146.40104,34.330231 170.89019,46.94607 c 5.85076,-7.012753 12.77356,-8.711952 21.11402,-3.384499 l -9.58055,12.806202 13.87326,-3.880619 c 1.88447,7.232745 -1.96238,14.343547 -7.21309,21.424479 13.78733,8.445361 18.3364,40.151747 1.94931,58.641977 3.64142,1.52105 4.06958,1.87365 5.52307,2.59909 -0.078,0.67577 0.31113,1.19583 -0.97466,2.2742 -1.01523,-0.16132 -11.9016,-1.17676 -10.23392,-9.90903 -0.7423,0.26206 -1.56438,0.43104 -2.76153,0.16245 0.59449,3.06761 -0.8055,6.84293 -13.48278,14.61988 -1.2667,0.18907 -2.03587,-0.24377 -2.43665,-1.1371 1.04686,-2.16891 2.70226,-3.22216 4.38597,-4.22352 -3.14107,-2.1892 -6.2212,-4.83554 -8.93438,-10.23392 -17.70368,-5.06374 -29.82646,-22.99185 -25.82845,-32.651077 4.82528,4.140931 13.21317,12.399277 20.63027,14.457437 -1.64386,-7.23262 -1.17615,-14.554576 1.29955,-22.092264 z" />
			<!-- The eye -->
			<ellipse cx="161.50909" cy="64.124435" rx="2.7209227" ry="2.8833659"
				 fill="black" stroke="none" />
			<!-- The belly -->
			<path fill="#f3cf49" stroke="black"
			      stroke-width="0.2" stroke-linecap="round" stroke-linejoin="round"
			      d="m 171.37752,95.354129 c 8.00447,-9.370872 15.92248,-6.833156 20.14295,-4.385965 l -3.4113,11.695906 2.43665,-0.81221 0.0812,3.33008 1.29954,-0.73099 0.40611,2.68031 4.46719,-6.33529 c 5.1914,35.29584 -32.66821,33.51627 -28.91488,3.08642 l 6.66016,6.0104 -0.0812,-2.92398 2.51787,1.05588 -1.05588,-2.51786 2.92398,0.32488 z" />
			<!-- The tail -->
			<g>
				<path fill="#f3d40c" stroke="black"
				      stroke-width="0.2" stroke-linecap="round" stroke-linejoin="round"
				      d="m 136.68894,95.395094 c -7.45837,-2.663006 -8.5129,-13.185224 -3.79054,-18.665506 2.28565,2.105852 2.72156,4.211704 3.38851,6.317556 1.89778,-4.022265 2.98293,-5.335766 3.50337,-4.766883 4.9024,5.096106 1.67176,15.027487 -3.10134,17.114833 z" />
				<path fill="#e62826" stroke="black"
				      stroke-width="0.2" stroke-linecap="round" stroke-linejoin="round"
				      d="m 136.68894,95.395094 c -1.42798,-0.53801 -7.30682,-4.742672 -4.4223,-10.337819 0.62012,-1.16779 3.06616,0.6509 3.73311,2.756752 -0.0113,-1.800696 1.76965,-3.562426 2.29729,-3.043913 1.57132,-0.589694 3.165,8.537634 -1.6081,10.62498 z" />
			</g>
			<!-- The mouth -->
			<g>
				<path fill="#f3d408" stroke="black"
				      stroke-width="0.2" stroke-linecap="round" stroke-linejoin="round"
				      d="m 194.44445,43.778429 c 0.46448,-1.757009 10.81763,-14.739337 13.56162,-13.402753 2.24464,1.870565 -2.20267,4.103395 -2.84037,6.742584 3.50424,-0.500258 3.53657,-0.918606 4.17335,-0.21261 1.74365,1.590673 -8.38691,7.194407 -13.27017,8.822097 -1.81557,0.671942 -4.18741,1.548785 -1.62443,-1.949318 z" />
				<path fill="#e62826" stroke="black"
				      stroke-width="0.2" stroke-linecap="round" stroke-linejoin="round"
				      d="m 194.44445,43.77843 c 0.86222,-1.624427 6.13304,-9.082483 8.47929,-7.303958 0.91881,1.29604 0.0512,1.982074 -0.76324,3.030273 1.60389,-0.01412 2.34333,0.05367 2.273,0.892244 -1.26156,1.944228 -4.40944,3.570486 -8.36462,5.330759 -1.81557,0.671942 -4.18741,1.548785 -1.62443,-1.949318 z" />
			</g>
		</g>
		<g id="charmander-2">
			<!-- The body -->
			<path fill="#f36749" stroke="black"
			      stroke-width="0.2" stroke-linecap="round" stroke-linejoin="round"
			      d="m 385.37319,228.57227 c -27.6004,-39.57502 14.14935,-58.12207 25.63263,-33.76435 8.89605,-3.30316 18.45342,1.57262 18.9151,4.77297 -2.24067,2.39581 -5.54641,4.43659 -9.19239,6.36396 1.3616,5.62897 0.66453,10.74327 -5.48007,14.49569 9.47131,9.96293 8.98978,21.40036 5.83363,33.23402 4.94111,0.6737 7.95043,3.76215 7.24784,11.49048 3.75245,-2.3039 7.39699,-4.37041 8.83884,-1.59099 -4.09509,4.50804 -9.40253,7.80375 -15.37958,10.42983 -2.92159,-0.41626 -4.43271,-1.89038 -5.48007,-3.71231 -2.26332,3.26271 -5.41348,6.39872 -10.96016,9.19238 -5.07312,-1.93991 -10.42786,-5.14713 -16.44023,-11.3137 -22.70257,-5.05476 -36.23522,-15.93406 -47.90649,-34.11791 l 36.76956,10.25305 c 0.50232,-5.69581 2.85797,-10.97977 7.60139,-15.73312 z" />
			<!-- The eye -->
			<ellipse cx="392.3125" cy="203.1875" rx="2.65625"  ry="2.75"
				 fill="black" stroke="none" />
			<!-- The belly -->
			<path fill="#f3cf49" stroke="black"
			      stroke-width="0.2" stroke-linecap="round" stroke-linejoin="round"
			      d="m 423.00902,237.42096 -3.44652,9.95404 -0.5,-2.3125 -1.1875,2.5625 -1.625,-3.125 -2.3125,2.125 0.75,-12.625 c -4.70204,-3.24567 -8.56847,-3.14886 -11.4375,0.9375 l 7.0625,10.75 -2.4375,-0.75 0.875,2.0625 -2.6875,-0.125 1.5625,3 -10.1875,-7.25 c -0.87018,4.69116 -1.23353,9.45473 -0.9375,14.3125 2.51483,-1.65467 3.65427,-0.55854 5.0625,0 4.32854,2.8062 7.27164,6.57156 9.4375,10.875 4.10218,-4.3082 7.79982,-8.83706 10.08209,-14.13794 1.44054,-5.37999 2.35938,-10.78474 1.92693,-16.2536 z" />
			<!-- The mouth -->
			<g>
				<path fill="none" stroke="black"
				      stroke-width="0.5" stroke-linecap="round" stroke-linejoin="round"
				      d="m 420.72853,205.94485 c -4.30228,1.13235 -8.41569,2.68967 -12.24699,4.88172" />
				<path fill="none" stroke="black"
				      stroke-width="0.5" stroke-linecap="round" stroke-linejoin="round"
				      d="m 403.75,205.75 c 4.41075,2.3574 6.08925,6.20511 5,11.5625" />
			</g>
			<!-- The tail -->
			<g>
				<path fill="#f3d618" stroke="black"
				      stroke-width="0.2" stroke-linecap="round" stroke-linejoin="round"
				      d="m 341.68359,234.58094 c 6.94008,-3.45931 4.08477,-12.17772 -2.58739,-16.14626 -1.94188,-0.13486 -1.75203,3.16474 -1.34344,6.81675 -1.53189,-1.84524 -3.21539,-5.05495 -4.37865,-3.58252 -0.36801,11.34672 2.70992,14.95921 8.30948,12.91203 z" />
				<path fill="#e62826" stroke="black"
				      stroke-width="0.2" stroke-linecap="round" stroke-linejoin="round"
				      d="m 341.68359,234.58094 c 2.50264,-3.58577 4.62615,-7.1137 -0.54734,-9.52853 -1.27426,0.60397 -1.84256,1.96822 -1.3932,4.4284 -1.39569,-2.87391 -2.51853,-3.4286 -3.38349,-1.79126 -0.50845,3.56909 0.61335,6.8452 5.32403,6.89139" />
			</g>
		</g>
		<g id="charmander-3">
			<!-- The body -->
			<path fill="#f36749" stroke="black"
			      stroke-width="0.1" stroke-linecap="round" stroke-linejoin="round"
			      d="m 540.25,127.125 c -1.70416,-16.15231 9.70895,-38.347248 21.625,-42.25 22.74998,-34.688564 51.0026,-10.126018 39.375,9.25 5.19907,2.103229 9.1118,5.254583 8,12.5 -9.81681,-0.67557 -19.18184,-2.87588 -27.125,-9.875 -1.43949,6.7011 0.72342,12.40631 9.85355,18.16789 -3.18362,0.65268 -7.14765,-0.43011 -8.625,-1.08578 5.5159,6.75147 -2.4653,30.86488 -6.05285,35.48223 l -2.94454,0.0722 -0.68306,2.27144 c 7.28336,1.65055 -0.0822,2.38075 -7.2356,1.40457 -0.0829,-1.56605 -0.73002,-3.03805 -1.8125,-4.4375 -0.42449,1.58854 -1.00015,3.11661 -2.25,4.375 -0.13975,0.2591 2.4738,0.25435 3.21143,0.89493 1.07608,3.31501 -6.00787,1.31236 -14.39893,-1.01993 L 545.25,144 c -14.89323,-2.20045 -33.76929,-20.15983 -31.625,-37.375 7.17327,9.13297 15.13321,17.20287 26.625,20.5 z" />
			<!-- The eye -->
			<ellipse cx="579.85541" cy="88.321762" rx="3.3125" ry="3.15625"
				 fill="black" stroke="none" />
			<!-- The belly -->
			<path fill="#f3cf49" stroke="black"
			      stroke-width="0.1" stroke-linecap="round" stroke-linejoin="round"
			      d="m 585.15978,119.3218 -6.30449,9.01808 -0.35355,-3.09359 -0.97228,2.12132 -0.53033,-3.44715 -1.94454,1.06066 5.3033,-7.95495 c -0.56268,-4.86206 -10.24354,-6.5509 -16.61701,-3.44714 l 7.15946,11.93242 -3.00521,-1.59099 v 3.27037 l -2.29809,-2.65165 -0.7955,3.62392 -6.36396,-8.39689 -2.38648,0.17678 c -3.45559,25.92851 9.32938,31.27767 26.00324,18.50682 1.99062,-6.32908 3.403,-12.68656 3.10544,-19.12801 z" />
			<!-- The mouth -->
			<g>
				<path fill="#c04e36" stroke="black"
				      stroke-width="0.1" stroke-linecap="round" stroke-linejoin="round"
				      d="m 591.97855,114.91789 c -0.62795,-4.35873 -3.37029,-9.77465 -5.53388,-14.9012 L 582.125,96.75 c -1.89879,8.16262 2.70651,13.68177 9.85355,18.16789 z" />
				<path fill="#e5827d" stroke="black"
				      stroke-width="0.1" stroke-linecap="round" stroke-linejoin="round"
				      d="m 581.71591,99.570591 c 5.98062,2.551189 6.95469,7.009649 5.96681,12.215509 -3.94759,-3.35362 -6.22148,-7.32097 -5.96681,-12.215509 z" />
			</g>
			<!-- The tail -->
			<g>
				<path fill="#f3d40d" stroke="black"
				      stroke-width="0.1" stroke-linecap="round" stroke-linejoin="round"
				      d="m 514.02244,107.96637 c 3.99878,-1.12336 3.86725,-10.544353 1.72357,-12.020819 -0.89924,0.41938 -1.06621,1.387956 -1.5468,2.121321 -1.1786,-3.030418 -3.19725,-9.248957 -4.33103,-8.750447 -1.13021,0.665878 -0.44194,7.30677 -0.66291,10.960155 -0.89159,-0.855833 -1.62896,-1.904446 -2.961,-2.209708 -0.79963,0.978705 1.32451,11.171608 7.77817,9.899498 z" />
				<path fill="#e62826" stroke="black"
				      stroke-width="0.1" stroke-linecap="round" stroke-linejoin="round"
				      d="m 514.02244,107.96637 c 2.98177,-4.35508 2.12487,-7.38407 -1.37002,-9.501751 -1.59659,-7.47e-4 -0.38302,3.064131 -0.57453,4.596191 -1.20773,0.26842 -1.64136,-0.81784 -2.43068,-1.28163 -1.23087,2.74255 2.68681,6.81885 4.37523,6.18719 z" />
			</g>
		</g>
		<g id="charmander-4">
			<!-- The body -->
			<path fill="#f36749" stroke="black"
			      stroke-width="0.1" stroke-linecap="round" stroke-linejoin="round"
			      d="m 85.780892,359.5638 c 1.982542,-5.0742 4.541065,-9.39053 8.750446,-11.53468 5.382554,-31.2478 41.917822,-21.60625 38.938442,2.80365 l 1.41084,0.069 3.88909,-5.83363 1.94454,-0.53033 -0.70711,2.2981 2.65165,-1.59099 -1.41421,2.82842 4.06587,-0.7071 -5.12653,7.95495 5.83363,4.94975 7.6014,-5.83364 -1.06066,4.06587 3.53553,0.35355 -2.2981,2.47488 3.53554,0.35355 -6.01041,4.15425 c 3.04458,1.04579 5.15437,4.64282 7.33623,6.98268 7.00481,-5.17991 13.32793,-10.492 19.18028,-19.62221 0.49878,14.66533 -4.30998,27.15544 -10.96016,38.89087 3.99085,5.48771 5.15689,9.262 4.06586,11.66726 l -4.94974,-3.0052 c -4.58129,5.156 -8.69913,7.42441 -12.1976,5.83363 l -7.64558,3.71231 c -4.44894,3.29502 -7.95196,7.80622 -11.61419,12.11273 -4.65512,-1.70884 -13.49701,-3.24816 -13.09036,-4.15778 0.93281,-2.35588 3.63716,0.30758 5.48008,0.53033 -1.10308,-3.9068 -3.38081,-8.04095 -2.12132,-11.49048 -12.15844,-7.39121 -17.37737,-18.33287 -15.2028,-33.05725 l -15.733125,-0.88388 13.788585,-11.84404 c -7.29195,-0.64792 -14.221784,-0.20947 -21.876118,-1.94454 z" />
			<!-- The eye -->
			<circle cx="114.90625" cy="348.65625" r="3.09375"
				fill="black" stroke="none" />
			<!-- The belly -->
			<path fill="#f3cf49" stroke="black"
			      stroke-width="0.1" stroke-linecap="round" stroke-linejoin="round"
			      d="m 153.79572,406.58643 c 0.4831,-8.64675 -26.12416,-40.55258 -44.35891,-21.32771 1.40979,9.68731 6.78341,16.87382 15.36754,22.03482 9.91459,4.04448 15.01712,2.85846 21.34579,3.0052 z" />
			<!-- The tail -->
			<g>
				<path fill="#f3d511" stroke="black"
				      stroke-width="0.1" stroke-linecap="round" stroke-linejoin="round"
				      d="m 177.21864,355.05599 c 10.91268,-1.21131 10.82069,-11.17986 5.03813,-25.67681 -1.28659,2.1546 -2.64652,2.62233 -3.71231,9.8553 -0.87902,-1.96706 -1.85269,-3.78267 -3.31456,-4.81717 -6.33078,10.0788 -2.56428,15.53864 1.98874,20.63868 z" />
				<path fill="#e62826" stroke="black"
				      stroke-width="0.1" stroke-linecap="round" stroke-linejoin="round"
				      d="m 177.21864,355.05599 c 3.66616,-0.23929 5.48047,-3.87363 4.90555,-11.88823 -1.08316,0.28875 -2.24958,0.11952 -2.65165,4.15425 -0.97926,-0.0967 -1.5525,-1.2491 -1.94454,-2.87262 -1.68399,3.53553 -1.18759,7.07107 -0.30936,10.6066 z" />
			</g>
		</g>
		<g id="charmander-5">
			<!-- The body -->
			<path fill="#f36749" stroke="black"
			      stroke-width="0.1" stroke-linecap="round" stroke-linejoin="round"
			      d="m 304.40947,536.51727 c 1.93292,-5.7159 3.89857,-11.4183 13.08147,-14.14214 9.06096,-33.75475 47.08227,-19.70518 41.7193,7.77818 8.22591,14.07146 12.58393,29.22597 12.81631,45.96194 13.28772,-0.0539 27.10576,-0.36169 40.39348,-1.59099 l -46.49227,23.33452 c -4.94552,5.65131 -10.29218,9.96549 -15.73313,13.96536 -8.43264,-2.53889 -14.56153,-7.14549 -14.49569,-8.66206 l 6.01041,1.41422 c 0.20711,-1.46361 0.12956,-2.83233 1.76777,-4.77297 l -5.48008,-1.76777 -16.08668,7.07107 -10.42982,-15.37957 c 3.72697,-1.15572 4.48185,2.60098 6.71751,4.19845 1.43402,-3.46841 3.44524,-5.28769 5.70105,-6.40816 -2.80227,-6.6311 -6.06133,-13.04072 -6.23138,-20.94804 l -12.19759,3.0052 2.65165,-2.47487 -4.59619,-1.06066 4.59619,-2.65165 -5.48008,-1.59099 14.76086,-4.86136 c 1.53524,-4.03759 1.5284,-8.97915 5.21491,-11.75565 -3.85666,-1.83857 -7.78587,-3.38693 -10.96016,-7.95495 z" />
			<!-- The eye -->
			<ellipse cx="339.79037" cy="529.22839" rx="2.4745486" ry="2.5039029"
				 fill="black" stroke="none" />
			<!-- The belly -->
			<path fill="#f3cf49" stroke="black"
			      stroke-width="0.1" stroke-linecap="round" stroke-linejoin="round"
			      d="m 317.40256,556.93498 c 8.70517,-12.3464 24.12109,-3.40432 28.63782,0.79549 l -8.83883,11.93243 4.06586,-1.67938 -0.88388,3.71231 2.47487,0.17678 v 3.0052 l 8.13173,-9.63433 1.94454,-0.0884 c 4.24934,7.4077 4.18191,14.87146 2.03293,22.36225 l -11.49048,12.28598 -5.48008,-1.76777 c -4.86383,-3.01251 -9.79602,-5.81997 -14.09794,-10.51821 -3.03929,-6.75229 -6.05193,-13.51096 -6.23138,-20.94804 -0.30053,-3.16901 -0.38126,-6.38198 -0.26516,-9.63431 z" />
			<!-- The mouth -->
			<path fill="none" stroke="black"
			      stroke-width="0.5" stroke-linecap="round" stroke-linejoin="round"
			      d="m 312.74815,538.29311 c 7.98813,-0.0155 15.8441,-0.0257 23.26702,-0.0763" />
			<!-- The tail -->
			<g>
				<path fill="#f3d40c" stroke="black"
				      stroke-width="0.1" stroke-linecap="round" stroke-linejoin="round"
				      d="m 411.8125,575.78125 c 14.42779,-2.80311 5.91041,-19.62289 5.5,-20.5 -2.3932,2.31585 -4.33596,5.20499 -5.8125,8.6875 -1.15598,-1.33383 -1.72168,-3.7639 -3.46875,-4 -3.02154,7.61572 -3.62558,13.90756 3.78125,15.8125 z" />
				<path fill="#e62826" stroke="black"
				      stroke-width="0.1" stroke-linecap="round" stroke-linejoin="round"
				      d="m 411.8125,575.78125 c -2.07404,-2.33342 -5.59851,-3.36909 -3.21875,-9.6875 1.52556,0.46671 2.21287,1.91137 2.75,3.53125 0.97858,-1.99042 2.47866,-3.23585 4.03125,-4.40625 0.67872,3.99479 0.9219,7.87897 -3.5625,10.5625 z" />
			</g>
		</g>
		<g id="charmander-6">
			<!-- The body -->
			<path fill="#f36749" stroke="black"
			      stroke-width="0.1" stroke-linecap="round" stroke-linejoin="round"
			      d="m 566.65769,464.87852 c 2.87172,-4.69076 4.70523,-10.02421 12.28599,-11.79985 14.71441,-30.40252 43.72279,-15.93623 39.3587,9.32995 8.29876,-1.14308 15.72852,3.18865 22.88814,6.82995 l 14.12069,-18.98833 c 1.51748,12.0846 -1.81036,25.78431 -2.82843,38.7141 1.24282,10.17875 -0.76394,19.64998 -6.82199,27.47361 l 5.99081,4.88725 c -5.55703,-0.22741 -11.01478,-3.03588 -16.49293,-5.31403 -1.29348,-2.4797 -1.46108,-5.84051 -1.41422,-9.36916 -0.70711,0.12439 -1.41421,0.16558 -2.12132,-0.17678 -0.91669,3.41609 -1.70853,6.97623 -3.35875,9.54594 -4.12466,1.29696 -8.44506,1.71306 -12.72793,2.2981 1.60891,-1.42345 3.28241,-2.79522 5.3033,-3.88909 -1.85546,-3.48415 -3.74182,-6.96057 -4.94974,-10.6066 l -7.95495,-3.71231 -1.41422,4.24264 -1.23744,-1.94454 -1.06066,1.59099 -1.59099,-1.94455 -1.94454,1.41422 c -0.0147,-12.4112 -2.21772,-5.75282 -1.76777,-13.96536 -2.08232,-3.02466 -4.11232,-6.08333 -3.88908,-10.6066 -8.81002,-0.11172 -17.21137,-1.30641 -23.68808,-7.6014 2.59893,-1.41932 4.78973,-3.90989 8.78657,-4.36142 l 0.0523,-1.16285 c -1.08181,-0.86563 -9.01562,-0.58926 -13.52343,-0.88388 z" />
			<!-- The eye -->
			<ellipse cx="595.4281" cy="453.43222" rx="3.1377864" ry="3.0052037"
				 fill="black" stroke="none" />
			<!-- The belly -->
			<path fill="#f3b349" stroke="black"
			      stroke-width="0.1" stroke-linecap="round" stroke-linejoin="round"
			      d="m 595.89144,484.22008 c 2.6299,-4.69799 16.61639,-2.21195 17.61208,-1.44292 l 0.97227,15.64473 2.12132,-2.65165 1.85616,2.82843 0.88388,-2.20971 2.12132,1.23744 0.17678,-12.99309 c 8.88505,4.64392 16.59646,9.61385 19.53382,15.9099 -2.59788,6.08596 -20.81585,3.72056 -25.27906,3.27037 l -7.95495,-3.71231 c -3.37187,-2.57305 -6.57726,-5.58309 -9.01562,-10.6066 -1.13156,-1.70141 -2.32331,-3.37487 -3.028,-5.27459 z" />
			<!-- The tail -->
			<g>
				<path fill="#f3d40c" stroke="black"
				      stroke-width="0.1" stroke-linecap="round" stroke-linejoin="round"
				      d="m 654.8125,452.125 c 2.90096,-2.52311 7.91444,3.00142 7.6875,-11.4375 -0.57476,0.46999 -0.99574,0.40174 -1.875,1.9375 -0.91413,-0.21468 -1.07981,-2.30048 -1,-5 -1.45861,0.75822 -1.88608,1.9289 -2.5625,3 -1,-3.9375 -0.74018,-10.93457 -3,-11.8125 -6.61334,9.57333 -9.04297,18.0479 0.75,23.3125 z" />
				<path fill="#e62826" stroke="black"
				      stroke-width="0.1" stroke-linecap="round" stroke-linejoin="round"
				      d="m 654.8125,452.125 c 1.80306,-1.98361 5.29666,-1.81561 3.75,-8.0625 -1.30085,-0.35136 -2.52995,-0.23631 -3.5,1.5625 -1.08804,-2.93547 -0.78516,-8.93097 -3.375,-8.5625 -2.63381,1.14242 -3.61661,9.80902 3.125,15.0625 z" />
			</g>
			<!-- The mouth -->
			<g>
				<path fill="none" stroke="black"
				      stroke-width="0.5" stroke-linecap="round" stroke-linejoin="round"
				      d="m 582.125,460.375 c -2.50128,4.38045 -2.32177,8.77299 1.125,13.25" />
				<path fill="#f3d40c" stroke="black"
				      stroke-width="0.1" stroke-linecap="round" stroke-linejoin="round"
				      d="m 565.42026,466.95564 -15.55635,-0.70711 c -0.56413,-3.94801 -0.45638,-7.89602 -1.85615,-11.84403 -1.23626,0.4681 -1.79784,2.42051 -1.85616,5.48007 -1.13172,0.38479 -1.89949,-1.05023 -2.56326,-3.0052 -2.80437,1.19332 -9.04996,15.62252 -2.56326,16.97056 9.23572,-0.82709 16.97538,-1.71521 24.39518,-6.89429 z" />
				<path fill="#f3e50d" stroke="black"
				      stroke-width="0.1" stroke-linecap="round" stroke-linejoin="round"
				      d="m 557.90725,468.54663 c -2.42435,-0.95449 -6.08893,-0.28714 -9.19239,-0.35355 0.11126,-1.70469 -1.47071,-1.93166 -2.38648,-2.74004 -0.88608,0.15178 -1.28804,0.61824 -1.59099,1.14905 -0.42151,-0.52176 -0.55534,-1.06458 -2.12132,-1.5026 -3.86409,3.09906 -4.75784,6.06489 -1.59099,8.75044 1.20953,-0.68264 13.62359,0.0769 16.88217,-5.3033 z" />
				<path fill="#e74821" stroke="black"
				      stroke-width="0.1" stroke-linecap="round" stroke-linejoin="round"
				      d="M 556.1875,469.90625 548,469.3125 c -0.423,-1.01872 -0.65221,-2.10204 -1.90625,-2.84375 -0.76445,0.36896 -1.07028,1.42584 -1.34375,2.53125 -0.36342,-1.35997 -0.63107,-3.02642 -1.59375,-2.46875 -3.23246,0.36929 -3.64439,5.61983 -1.02896,6.63593 6.6781,-0.44689 12.02858,-1.32052 14.06021,-3.26093 z" />
			</g>
		</g>
	</g>
	<!-- The Bulbasaurs -->
	<g id="bulbasaurs">
		<g id="bulbasaur-1">
			<!-- The body -->
			<path fill="#a1e365" stroke="black"
			      stroke-width="0.1" stroke-linecap="round" stroke-linejoin="round"
			      d="m 208.95266,255.11484 c -17.69723,-24.87314 7.96102,-33.09815 15.13263,-39.74227 1.88521,-4.84666 3.77043,-7.17508 5.65564,-2.29283 3.52916,-2.61387 4.07765,-0.59115 3.97422,2.44568 3.01688,-6.15734 5.45321,1.03808 8.10131,3.36281 6.29952,1.95465 11.73257,4.77576 15.5912,9.17129 4.80942,-0.87066 7.56771,1.3354 10.8527,2.75139 17.45026,-14.11701 11.15841,14.97978 11.15841,14.97978 6.75248,16.58585 8.34217,30.97368 -25.52677,30.26527 -3.95099,1.13759 -12.72294,5.72838 -30.41812,-2.29282 -8.76465,-2.97054 -26.03253,-6.98163 -14.52122,-18.6483 z" />
			<!-- The flower -->
			<path fill="#6e8e50" stroke="black"
			      stroke-width="0.1" stroke-linecap="round" stroke-linejoin="round"
			      d="m 208.95266,255.11484 c -17.69723,-24.87314 7.96102,-33.09815 15.13263,-39.74227 1.88521,-4.84666 3.77043,-7.17508 5.65564,-2.29283 3.52916,-2.61387 4.07765,-0.59115 3.97422,2.44568 3.01688,-6.15734 5.45321,1.03808 8.10131,3.36281 6.29952,1.95465 11.73257,4.77576 15.5912,9.17129 -1.7023,-0.42258 -10.51192,-0.38169 -17.64994,6.03151 -15.65118,-11.76012 -16.91122,-1.57031 -14.49776,13.75272 -6.30463,1.04323 -10.84353,2.72802 -16.3073,7.27109 z" />
			<!-- The eyes -->
			<g>
				<ellipse cx="238.53009" cy="257.33124" rx="2.5221059" ry="2.8278158"
					 fill="black" stroke="none" />
				<ellipse cx="271.69958" cy="253.28058" rx="2.6749609" ry="2.5985334"
					 fill="black" stroke="none" />
			</g>
			<!-- The mouth -->
			<g>
				<path fill="#7ba354" stroke="black"
				      stroke-width="0.1" stroke-linecap="round" stroke-linejoin="round"
				      d="m 238.97536,265.56421 c 6.63505,5.70219 30.60921,0.9863 33.07394,-5.40424 -11.45907,1.31268 -23.75641,1.68232 -33.07394,5.40424 z" />
				<path fill="#ea8d8d" stroke="black"
				      stroke-width="0.1" stroke-linecap="round" stroke-linejoin="round"
				      d="m 245.13748,267.86591 c 6.06692,-6.91115 13.05012,-3.69553 15.47471,-1.23175 -4.08121,0.78522 -7.21881,1.89868 -15.47471,1.23175 z" />
			</g>
			<!-- The extra lines -->
			<g>
				<path fill="none" stroke="black"
				      stroke-width="0.2" stroke-linecap="round" stroke-linejoin="round"
				      d="m 223.47388,273.76314 c -4.09688,-4.10384 -4.99214,-7.00708 -4.49419,-9.38786" />
				<path fill="none" stroke="black"
				      stroke-width="0.2" stroke-linecap="round" stroke-linejoin="round"
				      d="m 225.78903,253.78297 c 1.66571,21.63498 25.97345,13.88185 28.10297,22.27299 -0.50901,-10.54936 25.90286,4.19088 25.52677,-30.26527" />
			</g>
			<!-- The spots -->
			<g>
				<ellipse cx="247.93066" cy="239.14151" rx="5.5792041" ry="3.4392354"
					 fill="#88be59" stroke="none" />
				<path fill="#88be59" stroke="none"
				      d="m 260.75446,244.27152 c 0.93524,1.08526 -1.88813,2.64808 -3.35063,2.64808 -1.46249,0 -3.67488,-0.4048 -3.67488,-1.83745 0,-1.43264 3.2392,-1.72935 4.10722,-3.4587 0.65607,-1.30708 1.79628,1.34609 2.91829,2.64807 z" />
				<ellipse cx="258.75488" cy="234.5439" rx="2.485949" ry="1.3510593"
					 fill="#88be59" stroke="none" />
			</g>
		</g>
		<g id="bulbasaur-2">
			<!-- The body -->
			<path fill="#a1e365" stroke="black"
			      stroke-width="0.1" stroke-linecap="round" stroke-linejoin="round"
			      d="m 531.93508,257.56052 c 0.43008,-4.03898 1.66108,-7.11685 4.12708,-8.71273 1.94846,-7.53714 2.05942,-17.32011 7.33704,-20.78827 l 14.36836,10.69985 5.04421,0.15285 c 12.54186,-12.67507 21.90955,-7.77007 31.94668,-6.57276 4.28447,-1.46329 9.8568,-8.50729 12.22839,-1.6814 5.10966,-3.60392 3.69036,-0.55333 3.82137,0.91713 4.17535,-3.16348 3.39677,6.33311 5.04421,9.62985 15.05739,13.46647 15.36084,32.5833 -4.7385,40.81226 -1.07217,8.19314 -18.11357,21.59817 -22.31681,2.44568 -5.55221,3.20062 -6.29752,12.19778 -17.99401,7.98911 -2.97562,-3.55469 -0.63297,-6.65081 -2.79426,-11.35191 -2.80427,0.1 -6.74266,-0.93417 -8.10131,0.61142 -5.7199,3.75949 -7.78408,11.72307 -20.96751,6.8995 1.39263,-2.46596 1.5415,-7.79111 1.40208,-12.55514 -4.11473,-3.97562 -8.12762,-7.92068 -8.25417,-10.69984 10.94861,0.79422 21.71132,2.518 32.25239,5.34992 -6.31494,-4.65105 -6.90636,-9.64551 -32.40524,-13.14552 z" />
			<!-- The flower -->
			<path fill="#6e8e50" stroke="black"
			      stroke-width="0.1" stroke-linecap="round" stroke-linejoin="round"
			      d="m 562.81177,238.91222 c 12.54186,-12.67507 21.90955,-7.77007 31.94668,-6.57276 4.28447,-1.46329 9.8568,-8.50729 12.22839,-1.6814 5.10966,-3.60392 3.69036,-0.55333 3.82137,0.91713 4.17535,-3.16348 3.39677,6.33311 5.04421,9.62985 15.05739,13.46647 15.36084,32.5833 -4.7385,40.81226 -4.06259,-8.50769 -16.47801,-16.31967 -23.84697,-20.32688 3.28697,-5.15958 -1.91063,-26.57341 -4.37261,-26.39324 -5.63288,-0.97957 -9.79006,1.79717 -13.86836,4.7747 -0.0845,-0.46498 -4.37658,-1.85267 -6.21421,-1.15966 z" />
			<!-- The eyes -->
			<g>
				<ellipse cx="542.17633" cy="248.84778" rx="3.2099531" ry="3.0570982"
					 fill="black" stroke="none" />
				<circle cx="570.49274" cy="261.49655" r="3.1717393"
					fill="black" stroke="none" />
			</g>
			<!-- The mouth -->
			<path fill="#6f8f50" stroke="black"
			      stroke-width="0.1" stroke-linecap="round" stroke-linejoin="round"
			      d="m 531.93508,257.56052 c 12.39254,5.15707 9.08374,6.45315 9.86348,8.75461 10.55463,1.30456 13.44259,2.22858 22.54176,4.39091 -7.34021,-6.00059 -8.56592,-9.69819 -32.40524,-13.14552 z" />
			<!-- The extra lines -->
			<path fill="none" stroke="black"
			      stroke-width="0.2" stroke-linecap="round" stroke-linejoin="round"
			      d="m 540.3421,276.05596 c 11.5262,7.10719 14.13053,4.9046 19.56543,5.65564" />
			<!-- The spots -->
			<g>
				<path fill="#88be59" stroke="none"
				      d="m 566.13858,244.26305 c 0,1.5371 -1.51708,1.9185 -3.18849,1.9185 -1.67142,0 -3.31395,-1.19633 -4.13616,-2.32462 -0.90527,-1.24225 1.38389,-2.48515 3.05531,-2.48515 1.67142,0 4.26934,1.35416 4.26934,2.89127 z" />
				<path fill="#88be59" stroke="none"
				      d="m 557.55515,246.59534 c -10e-6,0.47754 -0.5686,0.86467 -1.26999,0.86467 -0.7014,0 -1.51318,-1.14372 -1.51319,-1.62126 0,-0.47755 1.19008,-0.21618 1.89149,-0.21617 0.70139,0 0.89169,0.49521 0.89169,0.97276 z" />
				<path fill="#88be59" stroke="none"
				      d="m 565.33726,252.08064 c 0,0.49248 -0.80614,0.0541 -1.56724,0.0541 -0.76109,0 -1.90651,-0.77289 -1.90651,-1.26537 0,-0.49247 1.16204,-0.46323 1.92314,-0.46323 0.76109,0 1.55061,1.18204 1.55061,1.67451 z" />
			</g>
		</g>
		<g id="bulbasaur-3">
			<!-- The body -->
			<path fill="#a1e365" stroke="black"
			      stroke-width="0.1" stroke-linecap="round" stroke-linejoin="round"
			      d="m 290.44411,408.35417 c -11.18915,-11.07459 -2.79185,-32.67571 9.72272,-36.416 1.99948,-3.26287 2.98118,-8.78745 7.77817,-5.83363 2.20914,-5.19462 2.84796,-3.38985 5.83363,-1.59099 3.89394,-1.83196 5.18682,2.31852 7.6014,3.88908 10.52315,1.08283 15.93488,6.33052 20.15255,12.55115 11.73744,-9.90873 11.37875,1.62568 13.25825,9.19239 9.96392,13.13634 8.81649,21.65719 3.53553,28.46104 -0.78872,7.71555 -3.93605,12.48722 -8.48528,17.14735 -2.3792,-0.0525 -5.18251,-5.61861 -7.77817,-8.48528 -6.01823,1.14665 -11.89492,0.73652 -17.67767,-0.70711 -1.0278,4.15916 -1.61238,10.23896 -3.27038,11.66726 -9.17247,-2.40376 -15.27558,-6.11786 -19.26865,-14.4073 l -6.62913,6.98267 c -8.92931,-5.08534 -10.93014,-11.71913 -4.77297,-22.45063 z" />
			<!-- The flower -->
			<path fill="#6e8e50" stroke="black"
			      stroke-width="0.1" stroke-linecap="round" stroke-linejoin="round"
			      d="m 290.44411,408.35417 c -11.18915,-11.07459 -2.79185,-32.67571 9.72272,-36.416 1.99948,-3.26287 2.98118,-8.78745 7.77817,-5.83363 2.20914,-5.19462 2.84796,-3.38985 5.83363,-1.59099 3.89394,-1.83196 5.18682,2.31852 7.6014,3.88908 10.52315,1.08283 15.93488,6.33052 20.15255,12.55115 -1.42145,0.05 -2.49151,3.04088 -3.63022,2.70742 -8.8136,-0.19754 -22.17158,6.71646 -22.17158,6.71646 0,0 -9.9469,-8.05661 -15.87213,-6.04374 -2.33286,4.27157 1.00336,16.22156 1.5773,18.44823 -6.40484,2.10489 -6.88127,1.99059 -10.99184,5.57202 z" />
			<!-- The eyes -->
			<g>
				<ellipse cx="318.37054" cy="408.55804" rx="2.0625" ry="2.125"
					 fill="black" stroke="none" />
				<ellipse cx="349.625" cy="405.75" rx="2.0625" ry="2.125"
					 fill="black" stroke="none" />
			</g>
			<!-- The mouth -->
			<g>
				<path fill="#7ca556" stroke="black"
				      stroke-width="0.1" stroke-linecap="round" stroke-linejoin="round"
				      d="m 362.04383,410.75812 c -12.40555,2.20389 -38.23312,4.16374 -37.21665,6.61166 -0.56143,3.39774 22.33279,0.82495 33.49918,1.23743 1.78306,-2.39934 3.23237,-4.93185 3.71747,-7.84909 z" />
				<path fill="#d78f86" stroke="black"
				      stroke-width="0.1" stroke-linecap="round" stroke-linejoin="round"
				      d="m 324.82718,417.36978 c -0.16368,2.1603 8.04899,1.78296 17.0164,1.59143 4.73609,-4.32766 -17.14355,-4.53535 -17.0164,-1.59143 z" />
			</g>
			<!-- The extra lines -->
			<g>
				<path fill="none" stroke="black"
				      stroke-width="0.2" stroke-linecap="round" stroke-linejoin="round"
				      d="m 301.43595,402.78215 c 1.70706,7.16045 5.23522,12.09512 9.93905,15.59285" />
				<path fill="none" stroke="black"
				      stroke-width="0.2" stroke-linecap="round" stroke-linejoin="round"
				      d="m 342.06291,427.26928 c 8.01778,-0.29073 12.8991,-3.71792 16.26345,-8.66207" />
			</g>
			<!-- The spots -->
			<g>
				<path fill="#88be59" stroke="none"
				      d="m 332.53125,394.0625 c 0,1.00102 -2.2447,2.4375 -4.28125,2.4375 -2.03655,0 -4.8515,-0.67055 -3.96875,-2.3125 0.72085,-1.34082 1.3072,-1.78125 3.34375,-1.78125 2.03655,0 4.90625,0.65523 4.90625,1.65625 z" />
				<ellipse cx="335.74313" cy="389.61584" rx="1.3700194" ry="0.9722718"
					 fill="#88be59" stroke="none" />
			</g>
		</g>
		<g id="bulbasaur-4">
			<!-- The body -->
			<path fill="#a1e365" stroke="black"
			      stroke-width="0.1" stroke-linecap="round" stroke-linejoin="round"
			      d="m 123.875,514.375 c 5.89887,1.4107 7.59092,3.8731 11.125,5.875 9.59957,-5.14063 15.76172,-2.06965 22.5,-0.375 5.15505,-3.11087 10.43445,-5.25798 16.25,-3.25 l -1.625,5.875 c 3.79085,-3.88831 5.39597,-2.80903 6.625,-0.875 8.12237,-0.47608 7.15326,4.56766 9.25,7.75 10.36054,4.90745 9.24809,21.41492 -2,27 1.0792,0.99072 0.96323,6.1357 0.21268,8.8058 -1.00473,1.90435 -4.09987,4.78097 -4.83768,7.5692 -2.05619,-1.79167 -4.42067,-3.58333 -7.125,-5.375 l -5.625,-1 c -1.50632,3.329 -2.68324,6.72859 -7.375,9.375 -2.05263,-2.03949 -4.03808,-4.34769 -5.625,-8.25 -1.95652,-0.76473 -4.6518,-1.18471 -8.375,-1.125 -2.06454,3.14559 -3.75333,7.08025 -6.9205,7.91031 -4.03252,-5.12866 -5.17174,-10.25675 -5.0795,-17.03531 -5.65688,-0.83622 -17.9745,-13.12111 -12.125,-23.25 -1.06666,-1.68248 -1.91064,-13.53555 0.75,-19.625 z" />
			<!-- The flower -->
			<path fill="#6e8e50" stroke="black"
			      stroke-width="0.1" stroke-linecap="round" stroke-linejoin="round"
			      d="m 170.89428,528.42678 c 1.70401,4.79459 2.64016,10.15673 0.54322,17.76072 6.68009,2.10247 11.87627,5.25604 14.5625,10.1875 10.22766,-4.21296 13.15256,-21.64481 2,-27 -2.26038,-4.17093 -1.30597,-8.04289 -9.25,-7.75 -0.92533,-1.4083 -2.25669,-3.52586 -6.625,0.875 0.58549,2.3075 -0.47071,4.06777 -1.23072,5.92678 z" />
			<!-- The eyes -->
			<g>
				<ellipse cx="127" cy="536.71875" rx="2.1875" ry="2.28125"
					 fill="black" stroke="none" />
				<ellipse cx="160.125" cy="538.84375" rx="2.625" ry="2.59375"
					 fill="black" stroke="none" />
			</g>
			<!-- The mouth -->
			<g>
				<path fill="#789f54" stroke="black"
				      stroke-width="0.1" stroke-linecap="round" stroke-linejoin="round"
				      d="m 128.87021,546.50515 c 9.104,15.60916 23.77647,7.24631 27.312,1.85616 -13.26771,-2.57811 -18.20838,-1.23762 -27.312,-1.85616 z" />
				<path fill="#d49584" stroke="black"
				      stroke-width="0.1" stroke-linecap="round" stroke-linejoin="round"
				      d="m 134.1113,552.67192 c 5.88662,4.11613 10.80379,3.04338 15.54391,1.02301 -4.69642,-3.00788 -9.90484,-3.1997 -15.54391,-1.02301 z" />
			</g>
			<!-- The spots -->
			<g>
				<path fill="#88be59" stroke="none"
				      d="m 144.50065,525.21848 c 0,1.44975 -3.44459,1.8737 -5.04967,1.8737 -1.60507,0 -1.87539,-1.94872 -1.44784,-2.71339 1.35716,-0.964 0.74654,-3.08829 3.21561,-2.69129 3.1287,-1.42972 6.06613,2.87673 3.2819,3.53098 z" />
				<path fill="#88be59" stroke="none"
				      d="m 153.66919,524.76007 c 0,0.93198 -0.94406,1.7317 -1.94508,1.7317 -1.00101,0 -2.14395,-0.22519 -2.14395,-1.15717 0,-0.93198 1.09874,-0.84781 2.09976,-0.84781 1.00101,0 1.98927,-0.6587 1.98927,0.27328 z" />
				<path fill="#87bb59" stroke="none"
				      d="m 149.9375,530.03125 c 0.55987,0.10452 -0.9374,0.87657 -2.09375,0.87657 -1.15635,0 -2.41478,-0.40612 -2.09375,-0.87657 0.46404,-0.68003 0.9816,-0.76608 2.13794,-0.76608 1.15635,0 1.011,0.57219 2.04956,0.76608 z" />
			</g>
		</g>
		<g id="bulbasaur-5">
			<!-- The body -->
			<path fill="#a1e365" stroke="black"
			      stroke-width="0.1" stroke-linecap="round" stroke-linejoin="round"
			      d="m 484.7217,576.11525 c 1.21089,0.28879 2.14505,1.13104 3.0052,2.12132 0.27939,-1.13178 0.89946,-1.99101 1.76777,-2.65165 1.16532,0.0924 2.31011,0.32839 3.35876,1.23744 0.60984,-1.47331 1.41062,-1.99195 2.2539,-2.2981 2.40998,0.33123 4.52447,1.74593 6.58493,3.35876 8.41872,-1.35147 8.87578,0.86408 11.84404,2.65165 0.4874,-5.38369 3.34874,-9.58042 7.6014,-13.08148 4.08228,0.39606 6.23301,2.72368 8.48528,4.94975 0.72656,-3.71746 3.46391,-4.92142 6.01041,-6.36396 5.90933,3.09858 7.893,6.91091 11.49048,10.42982 21.51179,12.09257 15.82846,20.59896 17.32412,30.05204 13.30779,6.73942 -9.6223,9.3303 -20.81546,12.28598 -2.81403,6.11939 -5.15774,12.28581 -9.0598,18.29639 -2.95674,-2.27243 -4.63613,-4.80034 -5.83363,-7.42462 l -5.65686,8.83883 c -3.32307,-1.54759 -6.15148,-3.66051 -8.3085,-6.54073 -5.24684,0.94856 -9.31324,-0.85726 -13.61181,-2.12132 -0.25305,2.83783 -1.05524,5.4403 -2.47487,7.77817 -2.08335,0.98799 -19.54369,-4.33688 -13.87697,-19.75479 -13.25415,-2.31561 -19.44708,-18.80877 -3.62393,-33.455 -0.19405,-3.45578 1.38744,-6.02379 3.53554,-8.3085 z" />
			<!-- The flower -->
			<path fill="#6e8e50" stroke="black"
			      stroke-width="0.1" stroke-linecap="round" stroke-linejoin="round"
			      d="m 484.7217,576.11525 c 1.21089,0.28879 2.14505,1.13104 3.0052,2.12132 0.27939,-1.13178 0.89946,-1.99101 1.76777,-2.65165 1.16532,0.0924 2.31011,0.32839 3.35876,1.23744 0.60984,-1.47331 1.41062,-1.99195 2.2539,-2.2981 2.40998,0.33123 4.52447,1.74593 6.58493,3.35876 8.41872,-1.35147 8.87578,0.86408 11.84404,2.65165 1.46534,-0.68838 -0.0226,6.78014 1.89378,8.02785 -1.55969,-0.0258 -5.06393,7.97618 -4.87388,12.14939 -1.87735,0.0426 -20.46803,3.42846 -25.74611,17.16684 -13.25415,-2.31561 -19.44708,-18.80877 -3.62393,-33.455 -0.19405,-3.45578 1.38744,-6.02379 3.53554,-8.3085 z" />
			<!-- The eye -->
			<circle cx="535.3125" cy="600.6875" r="3.0625"
				fill="black" stroke="none" />
			<!-- The mouth -->
			<path fill="none" stroke="black"
			      stroke-width="0.1" stroke-linecap="round" stroke-linejoin="round"
			      d="M 568.3978,610.82849 C 559.87864,611.65502 547.10382,609.74576 534,607.625" />
			<!-- The extra lines -->
			<g>
				<path fill="none" stroke="black"
				      stroke-width="0.2" stroke-linecap="round" stroke-linejoin="round"
				      d="m 529.62298,572.40294 17.50089,4.06586" />
				<path fill="none" stroke="black"
				      stroke-width="0.2" stroke-linecap="round" stroke-linejoin="round"
				      d="m 528.7391,629.67859 14.89343,-10.87177" />
			</g>
			<!-- The spots -->
			<g>
				<path fill="#88be59" stroke="none"
				      d="m 547.91421,585.21025 c 0.46135,1.62723 -2.64734,3.55326 -4.57138,2.88572 -2.11965,-0.73541 -5.45527,-1.68049 -5.45527,-3.37186 0,-1.69137 2.62322,-3.63702 4.70397,-3.15089 1.98314,0.46334 4.88074,2.07824 5.32268,3.63703 z" />
				<path fill="#88be59" stroke="none"
				      d="m 554.23915,584.51215 c 0,0.95191 0.20588,1.41422 -0.68501,1.41422 -0.89089,0 -3.20409,-1.74394 -3.20408,-2.69585 0,-0.9519 0.7222,-0.88388 1.61309,-0.88388 0.89088,0 2.276,1.21361 2.276,2.16551 z" />
			</g>
		</g>
	</g>
	<!-- The Squirtles -->
	<g id="squirtles">
		<g id="squirtle-1">
			<!-- The body -->
			<g>
				<path fill="#6fcbaf" stroke="black"
				      stroke-width="0.1" stroke-linecap="round" stroke-linejoin="round"
				      d="m 51.448337,180.71769 c 5.45733,-22.58155 33.797489,-18.80037 44.314744,-8.21444 -4.683672,2.57159 -9.367344,3.54438 -14.051016,8.43061 3.155711,1.31734 11.424564,-3.21517 17.293559,-2.1617 -1.149548,5.88255 -4.727006,8.29665 -7.782102,11.45699 2.989726,13.36883 2.57662,25.52236 -6.485084,34.58711 -1.258895,3.35188 -2.721737,6.5814 -5.404237,9.07912 3.625214,5.21251 -4.951799,0.41258 -6.689267,-4.11921 l -2.109243,0.18995 c -1.261137,2.75499 -3.301811,3.60444 -5.468676,4.14543 7.271926,6.52453 -6.881736,1.85235 -9.511458,-7.56593 l -2.377864,-0.21617 c -19.374697,9.29746 -29.605529,7.2393 -30.1016,-5.51232 3.427749,-10.39142 15.55632,-5.38849 14.753567,0.75659 4.126337,-0.2544 7.83461,0.32732 11.240813,1.51319 -8.92943,-9.50755 -16.385711,-24.93639 2.377864,-42.36922 z" />
				<path fill="#ba6d4f" stroke="black"
				      stroke-width="0.1" stroke-linecap="round" stroke-linejoin="round"
				      d="m 53.177693,226.32945 c -3.469175,-7.19227 -5.236254,-14.49318 -1.971299,-22.11529 -7.30299,-2.75813 -2.336073,-11.12462 1.987114,-9.32415 0.991623,-1.70902 3.443405,-4.98078 2.839338,-7.48765 -2.256356,-1.58949 -4.271367,-3.39335 -5.391902,-5.92025 -23.831246,22.82156 -1.462386,42.73969 2.536749,44.84734 z" />
				<path fill="#e4ddad" stroke="black"
				      stroke-width="0.1" stroke-linecap="round" stroke-linejoin="round"
				      d="m 53.177694,226.32945 c -3.469175,-7.19227 -5.236254,-14.49318 -1.971299,-22.11529 -7.30299,-2.75813 -2.336073,-11.12462 1.987114,-9.32415 0.991623,-1.70902 3.443405,-4.98078 2.839338,-7.48765 14.099119,9.49249 30.579151,5.73583 35.190675,2.82679 3.806791,9.48767 2.65037,26.2784 -6.485084,34.58711 -4.821539,3.32429 -9.553458,4.74007 -14.202747,5.14986 -1.584378,-4.16483 -8.258473,-3.5407 -17.357997,-3.63667 z" />
				<path fill="#6fcbaf" stroke="black"
				      stroke-width="0.1" stroke-linecap="round" stroke-linejoin="round"
				      d="m 53.393863,196.11976 c 3.132219,1.37281 3.46792,4.72237 6.971465,5.07999 l 2.377865,0.37829 -1.675314,1.40511 1.675314,1.45914 -1.891483,0.70255 c 0.239614,0.51695 0.08299,1.18051 0.486381,1.83744 -3.530768,-0.77619 -7.061537,-1.88716 -10.592305,-4.37743 -2.658324,-3.20791 -0.891595,-7.29318 2.648077,-6.48509 z" />
			</g>
			<!-- The eyes -->
			<g>
				<ellipse cx="61.581284" cy="178.9613" rx="2.5260832" ry="2.5577404"
					 fill="black" stroke="none"
					 stroke-width="0.2" stroke-linecap="round" stroke-linejoin="round" />
				<ellipse cx="80.63121" cy="170.28751" rx="2.2968009" ry="2.4048855"
					 fill="black" stroke="none"
					 stroke-width="0.2" stroke-linecap="round" stroke-linejoin="round" />
			</g>
			<!-- The extra lines -->
			<g>
				<path fill="none" stroke="black"
				      stroke-width="0.2" stroke-linecap="round" stroke-linejoin="round"
				      d="m 88.039395,220.98235 c -13.340481,3.42048 -28.26687,3.14705 -37.787952,-2.45934" />
				<path fill="none" stroke="black"
				      stroke-width="0.2" stroke-linecap="round" stroke-linejoin="round"
				      d="m 93.069846,206.0647 c -13.593503,5.14823 -27.547195,6.42443 -42.289835,-0.78057" />
			</g>
		</g>
		<g id="squirtle-2">
			<!-- The body -->
			<g>
				<path fill="#6fcbaf" stroke="black"
				      stroke-width="0.1" stroke-linecap="round" stroke-linejoin="round"
				      d="m 298.31389,102.032 c 1.31751,-3.532884 4.99206,-6.300057 9.1872,-8.106359 -0.83829,-8.667841 18.93535,-28.670849 41.39646,-13.078254 29.42001,-16.765938 49.55064,9.974447 41.50454,32.857763 4.56611,-0.18962 7.45474,-1.84055 11.24081,-2.8102 -0.27473,-15.462238 19.50503,-12.674605 21.28502,-0.36902 -0.99357,10.7483 -13.04972,16.71236 -32.09349,6.63793 -0.43675,4.25841 -2.83071,6.80425 -4.80818,9.71452 l -4.95879,-3.71197 c -19.78031,6.98669 -35.68198,4.39085 -48.53516,-5.73657 -14.69087,-1.02669 -24.26093,-8.45441 -34.21841,-15.39784 z" />
				<path fill="#ba6d4f" stroke="black"
				      stroke-width="0.1" stroke-linecap="round" stroke-linejoin="round"
				      d="m 348.89755,80.847387 c 29.42001,-16.765938 49.55064,9.974447 41.50454,32.857763 -6.00114,-2.70222 -12.70503,-2.34188 -19.24683,-1.99016 -4.18383,-6.41273 -8.88945,-4.37692 -11.32965,-1.92975 -3.54865,-0.14419 -5.3107,-0.34517 -8.59614,-1.42316 3.96202,-8.813041 1.84253,-18.584739 -2.33192,-27.514693 z" />
				<path fill="#e4ddad" stroke="black"
				      stroke-width="0.1" stroke-linecap="round" stroke-linejoin="round"
				      d="m 390.40209,113.70515 c -3.62611,4.89231 -4.9578,6.22536 -9.33463,9.46126 -19.78031,6.98669 -35.68198,4.39085 -48.53516,-5.73657 7.09103,-0.64365 13.92688,-3.47254 18.69717,-9.06776 3.07847,0.59523 4.44404,0.90982 8.59614,1.42316 5.40937,-4.98657 9.53087,-0.97581 11.32965,1.92975 5.36999,-0.22737 11.99797,-0.97334 19.24683,1.99016 z" />
				<path fill="#6fcbaf" stroke="black"
				      stroke-width="0.1" stroke-linecap="round" stroke-linejoin="round"
				      d="m 360.1924,112.24601 c 3.21558,-4.22533 6.18764,-3.82395 8.97104,0.16212 -0.41323,11.54443 -1.6873,18.92722 -4.32339,19.72547 -1.95584,-0.4395 -3.95355,-0.24167 -4.64765,-19.88759 z" />
				<path fill="#6fcbaf" stroke="black"
				      stroke-width="0.1" stroke-linecap="round" stroke-linejoin="round"
				      d="m 338.1379,121.24982 c 0.72592,2.96094 2.55524,5.71499 4.90673,8.37114 2.53308,-1.05986 2.95558,-2.86463 3.8569,-4.50041 -3.26345,-1.0974 -6.27,-2.33956 -8.76363,-3.87073 z" />
			</g>
			<!-- The eyes -->
			<g>
				<circle fill="black" stroke="none"
					cx="316.10394" cy="90.490105" r="2.2928236" />
				<ellipse fill="black" stroke="none"
					 cx="336.89221" cy="101.07531" rx="2.369251" ry="2.3310373" />
			</g>
			<!-- The mouth -->
			<path fill="#6fcbaf" stroke="black"
			      stroke-width="0.1" stroke-linecap="round" stroke-linejoin="round"
			      d="m 300.2551,103.13922 c 5.51448,-0.50099 12.10982,-0.27223 16.45604,1.41777 -4.53399,1.13982 -8.73805,0.95993 -12.99709,0.99996 z" />
			<!-- The extra lines -->
			<g>
				<path fill="none" stroke="black"
				      stroke-width="0.2" stroke-linecap="round" stroke-linejoin="round"
				      d="m 337.4274,120.71635 c 10.06188,-0.7908 19.32277,-5.80036 22.38866,-10.86424" />
				<path fill="none" stroke="black"
				      stroke-width="0.2" stroke-linecap="round" stroke-linejoin="round"
				      d="m 367.91441,126.42672 c 6.27288,-4.04806 10.71859,-8.68277 12.71604,-14.76675" />
			</g>
		</g>
		<g id="squirtle-3">
			<!-- The body -->
			<g>
				<path fill="#6fcbaf" stroke="black"
				      stroke-width="0.1" stroke-linecap="round" stroke-linejoin="round"
				      d="m 458.48764,346.0651 c -16.06974,-15.93533 14.53006,-40.59053 37.59908,-22.496 3.6006,2.82419 5.11106,8.59306 3.74883,13.17026 l 0.76427,1.22284 3.82138,-3.66852 0.45856,1.3757 1.6814,-0.61142 -0.45856,1.6814 2.59853,0.15286 -5.08898,8.46185 c 0.15107,18.24086 -1.74427,24.61139 -3.31804,27.61191 l 2.90425,3.82137 c 6.64374,-2.25699 3.94302,1.22515 -2.29283,6.87847 -2.00905,-1.1401 -3.08617,-2.7648 -6.72561,-3.0571 -4.08091,1.98528 -8.35565,3.30602 -12.68696,4.43279 0.78912,14.70141 3.3747,31.0458 -15.43835,27.8196 -12.61718,-4.86993 -8.6802,-22.09229 5.34993,-17.88403 l 6.11419,-11.00555 -4.12708,-1.3757 c -3.42616,1.47637 -5.64099,3.6257 -7.7956,5.80849 -2.80455,-2.44549 -9.08343,-4.60146 -8.40702,-7.33703 1.5818,-0.60271 2.29556,0.31365 3.36281,0.61141 -0.26078,-1.42904 -2.30463,-4.88731 0.83527,-6.83369 -4.12921,-4.83573 -7.34554,-10.28003 -6.33805,-18.54022 l -11.31126,-7.64275 1.37569,-0.61141 -0.76427,-1.22284 1.52855,-0.15286 -0.61142,-1.83426 11.92268,2.19242 z" />
				<path fill="#e4ddad" stroke="black"
				      stroke-width="0.1" stroke-linecap="round" stroke-linejoin="round"
				      d="m 458.48764,346.0651 c 11.26995,1.53036 18.32954,8.14954 41.34791,-9.32574 2.01784,3.0824 3.04698,5.89015 3.7766,8.61471 -0.0169,18.57233 -1.54038,24.18516 -3.31804,27.61191 -1.80223,2.84238 -3.90668,5.30697 -6.11419,7.64274 -4.01236,1.78736 -8.13205,3.38823 -12.68696,4.43279 -1.30747,-0.18391 -2.59841,-0.2025 -3.97423,-1.06998 -1.53064,-0.18405 -3.0148,-0.56604 -4.12708,-1.3757 -4.17331,-2.30874 -8.3301,-4.64389 -12.00454,-7.75082 -5.24373,-5.57667 -7.2058,-11.81155 -6.33805,-18.54022 0.53031,-3.82318 1.03009,-8.89948 3.43858,-10.23969 z" />
			</g>
			<!-- The mouth -->
			<g>
				<path fill="#ba6d4f" stroke="black"
				      stroke-width="0.1" stroke-linecap="round" stroke-linejoin="round"
				      d="m 462.3861,340.63716 c 10.96121,-3.67382 22.48486,-7.98512 32.55809,-8.17774 -10.57279,11.21628 -21.37476,15.48107 -32.55809,8.17774 z" />
				<path fill="#fa908d" stroke="black"
				      stroke-width="0.1" stroke-linecap="round" stroke-linejoin="round"
				      d="m 472.32737,344.20963 c -0.90365,-5.29487 11.24027,-7.72758 12.24654,-3.18485 -3.43942,1.90391 -7.13444,3.47289 -12.24654,3.18485 z" />
			</g>
			<!-- The eyes -->
			<g>
				<ellipse cx="463.31876" cy="332.86047" rx="2.1481843" ry="2.0671208"
					 fill="black" stroke="black"
					 stroke-width="0.1" stroke-linecap="round" stroke-linejoin="round" />
				<ellipse cx="490.38046" cy="326.30783" rx="2.2697797" ry="2.0265889"
					 fill="black" stroke="black"
					 stroke-width="0.1" stroke-linecap="round" stroke-linejoin="round" />
			</g>
			<!-- The extra lines -->
			<g>
				<path fill="none" stroke="black"
				      stroke-width="0.2" stroke-linecap="round" stroke-linejoin="round"
				      d="m 501.00117,371.39805 c -11.58557,6.41517 -30.4623,6.30295 -40.78754,2.01972" />
				<path fill="none" stroke="black"
				      stroke-width="0.2" stroke-linecap="round" stroke-linejoin="round"
				      d="m 503.50042,353.09473 c -14.21803,10.21161 -30.34376,12.41082 -48.63754,5.50427" />
			</g>
		</g>
		<g id="squirtle-4-bl">
			<!-- The body -->
			<g>
				<path fill="#6fcbaf" stroke="black"
				      stroke-width="0.1" stroke-linecap="round" stroke-linejoin="round"
				      d="m 4.4753595,642.02762 c 1.2404809,-1.12152 2.2364517,-2.48754 4.6618328,-2.42416 1.3836627,-29.54332 38.2847267,-23.97715 43.6008217,-11.2317 2.342275,8.67535 0.157182,14.70764 -4.627899,19.25006 12.879638,25.03207 -11.905857,41.15547 -20.732472,41.36314 3.900057,2.17906 8.100397,3.75756 12.527646,4.88224 4.080015,-13.48933 24.230633,-6.11425 17.10675,6.85038 -8.459942,9.64117 -23.905004,5.53878 -32.024615,-10.2069 l -1.305313,-0.18647 c -1.919008,1.66532 -3.643866,2.89072 -7.085986,4.3868 L 9.1371923,688.3483 c -0.052425,-2.57702 2.3732697,0.29782 3.9159397,1.23001 0.399344,-1.148 0.780788,-2.31837 1.864733,-2.61062 -3.887944,1.25309 -7.9841839,-2.41742 -8.248131,-3.07213 -2.2933392,0.54596 -4.6640246,0.97589 -7.30639372,0.9983 l -5.93321148,-7.77727 c -0.024259,-2.22905 1.5337061,-0.1635 2.6539316,0.7139 0.7198038,-3.61257 2.1441277,-5.34641 3.9159396,-6.15362 -3.1153915,-8.23016 -0.25110985,-16.37365 8.7642457,-24.428 -2.0293718,-1.74042 -3.7398245,-3.48083 -4.2888862,-5.22125 z" />
				<path fill="#ba6c4e" stroke="black"
				      stroke-width="0.1" stroke-linecap="round" stroke-linejoin="round"
				      d="m 48.110115,647.62182 c 12.879638,25.03207 -11.905857,41.15547 -20.732472,41.36314 -0.359585,-0.67512 0.282492,-3.1683 -0.695114,-4.5796 4.551377,-1.38088 17.373785,-16.18568 17.621028,-24.07553 -3.062706,-3.28764 -3.79504,-6.3602 -3.352542,-7.45928 0.811177,-2.01482 5.383939,-4.70823 7.1591,-5.24873 z" />
				<path fill="#e4ddad" stroke="black"
				      stroke-width="0.1" stroke-linecap="round" stroke-linejoin="round"
				      d="m 48.110115,647.62182 c -5.10926,3.33802 -10.946732,4.15473 -3.806558,12.70801 -1.776109,11.47437 -13.011989,22.11223 -17.621028,24.07553 0.967193,2.15334 0.702804,2.48066 0.695114,4.5796 -0.921926,-0.0972 -1.533698,-0.0981 -2.264528,0.0586 1.430407,-9.01677 -6.231356,-4.93752 -10.195249,-2.07592 -3.887945,1.25309 -7.9841845,-2.41742 -8.2481315,-3.07213 C 4.2960699,682.60118 -0.56277194,673.57538 1e-6,671.67687 c -3.1153915,-8.23016 -0.2511099,-16.37365 8.7642455,-24.428 13.9798415,10.72369 20.8702415,9.94105 39.3458685,0.37295 z" />
			</g>
			<!-- The eyes -->
			<g>
				<ellipse cx="37.513184" cy="640.43561" rx="2.0678606" ry="1.944406"
					 fill="black" stroke="none" />
				<circle cx="13.844937" cy="632.71362" r="1.8459916"
					fill="black" stroke="none" />
			</g>
			<!-- The mouth -->
			<path fill="#54a5ae" stroke="black"
			      stroke-width="0.1" stroke-linecap="round" stroke-linejoin="round"
			      d="m 5.5934113,640.97733 c 4.3068117,3.3545 8.6136237,5.00625 12.9204357,6.73001 -4.273208,-0.90333 -8.42587,-0.76986 -12.9253109,-3.65551 l -1.1131766,-2.02421 z" />
			<!-- The arm -->
			<path fill="#70cbaf" stroke="black"
			      stroke-width="0.1" stroke-linecap="round" stroke-linejoin="round"
			      d="m 29.183074,663.47205 9.416902,-5.03478 c 3.70684,1.09908 4.062682,3.87365 1.305313,8.20483 l -8.950719,1.30531 0.83913,-1.49179 -2.144443,-0.27971 1.11884,-1.30531 z" />
			<!-- The extra lines -->
			<g>
				<path fill="none" stroke="black"
				      stroke-width="0.2" stroke-linecap="round" stroke-linejoin="round"
				      d="m 1.8459916,655.2611 c 9.7090334,12.4515 23.9446134,14.42597 39.2273224,13.97679" />
				<path fill="none" stroke="black"
				      stroke-width="0.2" stroke-linecap="round" stroke-linejoin="round"
				      d="m 0,671.67687 c 7.5315736,5.90071 18.552714,8.74515 31.645571,8.90031" />
			</g>
		</g>
		<g id="squirtle-4-tl" transform="translate(0,-666.6667)">
			<!-- The body -->
			<g>
				<path fill="#6fcbaf" stroke="black"
				      stroke-width="0.1" stroke-linecap="round" stroke-linejoin="round"
				      d="m 4.4753595,642.02762 c 1.2404809,-1.12152 2.2364517,-2.48754 4.6618328,-2.42416 1.3836627,-29.54332 38.2847267,-23.97715 43.6008217,-11.2317 2.342275,8.67535 0.157182,14.70764 -4.627899,19.25006 12.879638,25.03207 -11.905857,41.15547 -20.732472,41.36314 3.900057,2.17906 8.100397,3.75756 12.527646,4.88224 4.080015,-13.48933 24.230633,-6.11425 17.10675,6.85038 -8.459942,9.64117 -23.905004,5.53878 -32.024615,-10.2069 l -1.305313,-0.18647 c -1.919008,1.66532 -3.643866,2.89072 -7.085986,4.3868 L 9.1371923,688.3483 c -0.052425,-2.57702 2.3732697,0.29782 3.9159397,1.23001 0.399344,-1.148 0.780788,-2.31837 1.864733,-2.61062 -3.887944,1.25309 -7.9841839,-2.41742 -8.248131,-3.07213 -2.2933392,0.54596 -4.6640246,0.97589 -7.30639372,0.9983 l -5.93321148,-7.77727 c -0.024259,-2.22905 1.5337061,-0.1635 2.6539316,0.7139 0.7198038,-3.61257 2.1441277,-5.34641 3.9159396,-6.15362 -3.1153915,-8.23016 -0.25110985,-16.37365 8.7642457,-24.428 -2.0293718,-1.74042 -3.7398245,-3.48083 -4.2888862,-5.22125 z" />
				<path fill="#ba6c4e" stroke="black"
				      stroke-width="0.1" stroke-linecap="round" stroke-linejoin="round"
				      d="m 48.110115,647.62182 c 12.879638,25.03207 -11.905857,41.15547 -20.732472,41.36314 -0.359585,-0.67512 0.282492,-3.1683 -0.695114,-4.5796 4.551377,-1.38088 17.373785,-16.18568 17.621028,-24.07553 -3.062706,-3.28764 -3.79504,-6.3602 -3.352542,-7.45928 0.811177,-2.01482 5.383939,-4.70823 7.1591,-5.24873 z" />
				<path fill="#e4ddad" stroke="black"
				      stroke-width="0.1" stroke-linecap="round" stroke-linejoin="round"
				      d="m 48.110115,647.62182 c -5.10926,3.33802 -10.946732,4.15473 -3.806558,12.70801 -1.776109,11.47437 -13.011989,22.11223 -17.621028,24.07553 0.967193,2.15334 0.702804,2.48066 0.695114,4.5796 -0.921926,-0.0972 -1.533698,-0.0981 -2.264528,0.0586 1.430407,-9.01677 -6.231356,-4.93752 -10.195249,-2.07592 -3.887945,1.25309 -7.9841845,-2.41742 -8.2481315,-3.07213 C 4.2960699,682.60118 -0.56277194,673.57538 1e-6,671.67687 c -3.1153915,-8.23016 -0.2511099,-16.37365 8.7642455,-24.428 13.9798415,10.72369 20.8702415,9.94105 39.3458685,0.37295 z" />
			</g>
			<!-- The eyes -->
			<g>
				<ellipse cx="37.513184" cy="640.43561" rx="2.0678606" ry="1.944406"
					 fill="black" stroke="none" />
				<circle cx="13.844937" cy="632.71362" r="1.8459916"
					fill="black" stroke="none" />
			</g>
			<!-- The mouth -->
			<path fill="#54a5ae" stroke="black"
			      stroke-width="0.1" stroke-linecap="round" stroke-linejoin="round"
			      d="m 5.5934113,640.97733 c 4.3068117,3.3545 8.6136237,5.00625 12.9204357,6.73001 -4.273208,-0.90333 -8.42587,-0.76986 -12.9253109,-3.65551 l -1.1131766,-2.02421 z" />
			<!-- The arm -->
			<path fill="#70cbaf" stroke="black"
			      stroke-width="0.1" stroke-linecap="round" stroke-linejoin="round"
			      d="m 29.183074,663.47205 9.416902,-5.03478 c 3.70684,1.09908 4.062682,3.87365 1.305313,8.20483 l -8.950719,1.30531 0.83913,-1.49179 -2.144443,-0.27971 1.11884,-1.30531 z" />
			<!-- The extra lines -->
			<g>
				<path fill="none" stroke="black"
				      stroke-width="0.2" stroke-linecap="round" stroke-linejoin="round"
				      d="m 1.8459916,655.2611 c 9.7090334,12.4515 23.9446134,14.42597 39.2273224,13.97679" />
				<path fill="none" stroke="black"
				      stroke-width="0.2" stroke-linecap="round" stroke-linejoin="round"
				      d="m 0,671.67687 c 7.5315736,5.90071 18.552714,8.74515 31.645571,8.90031" />
			</g>
		</g>
		<g id="squirtle-4-tr" transform="translate(666.6667,-666.6667)">
			<!-- The body -->
			<g>
				<path fill="#6fcbaf" stroke="black"
				      stroke-width="0.1" stroke-linecap="round" stroke-linejoin="round"
				      d="m 4.4753595,642.02762 c 1.2404809,-1.12152 2.2364517,-2.48754 4.6618328,-2.42416 1.3836627,-29.54332 38.2847267,-23.97715 43.6008217,-11.2317 2.342275,8.67535 0.157182,14.70764 -4.627899,19.25006 12.879638,25.03207 -11.905857,41.15547 -20.732472,41.36314 3.900057,2.17906 8.100397,3.75756 12.527646,4.88224 4.080015,-13.48933 24.230633,-6.11425 17.10675,6.85038 -8.459942,9.64117 -23.905004,5.53878 -32.024615,-10.2069 l -1.305313,-0.18647 c -1.919008,1.66532 -3.643866,2.89072 -7.085986,4.3868 L 9.1371923,688.3483 c -0.052425,-2.57702 2.3732697,0.29782 3.9159397,1.23001 0.399344,-1.148 0.780788,-2.31837 1.864733,-2.61062 -3.887944,1.25309 -7.9841839,-2.41742 -8.248131,-3.07213 -2.2933392,0.54596 -4.6640246,0.97589 -7.30639372,0.9983 l -5.93321148,-7.77727 c -0.024259,-2.22905 1.5337061,-0.1635 2.6539316,0.7139 0.7198038,-3.61257 2.1441277,-5.34641 3.9159396,-6.15362 -3.1153915,-8.23016 -0.25110985,-16.37365 8.7642457,-24.428 -2.0293718,-1.74042 -3.7398245,-3.48083 -4.2888862,-5.22125 z" />
				<path fill="#ba6c4e" stroke="black"
				      stroke-width="0.1" stroke-linecap="round" stroke-linejoin="round"
				      d="m 48.110115,647.62182 c 12.879638,25.03207 -11.905857,41.15547 -20.732472,41.36314 -0.359585,-0.67512 0.282492,-3.1683 -0.695114,-4.5796 4.551377,-1.38088 17.373785,-16.18568 17.621028,-24.07553 -3.062706,-3.28764 -3.79504,-6.3602 -3.352542,-7.45928 0.811177,-2.01482 5.383939,-4.70823 7.1591,-5.24873 z" />
				<path fill="#e4ddad" stroke="black"
				      stroke-width="0.1" stroke-linecap="round" stroke-linejoin="round"
				      d="m 48.110115,647.62182 c -5.10926,3.33802 -10.946732,4.15473 -3.806558,12.70801 -1.776109,11.47437 -13.011989,22.11223 -17.621028,24.07553 0.967193,2.15334 0.702804,2.48066 0.695114,4.5796 -0.921926,-0.0972 -1.533698,-0.0981 -2.264528,0.0586 1.430407,-9.01677 -6.231356,-4.93752 -10.195249,-2.07592 -3.887945,1.25309 -7.9841845,-2.41742 -8.2481315,-3.07213 C 4.2960699,682.60118 -0.56277194,673.57538 1e-6,671.67687 c -3.1153915,-8.23016 -0.2511099,-16.37365 8.7642455,-24.428 13.9798415,10.72369 20.8702415,9.94105 39.3458685,0.37295 z" />
			</g>
			<!-- The eyes -->
			<g>
				<ellipse cx="37.513184" cy="640.43561" rx="2.0678606" ry="1.944406"
					 fill="black" stroke="none" />
				<circle cx="13.844937" cy="632.71362" r="1.8459916"
					fill="black" stroke="none" />
			</g>
			<!-- The mouth -->
			<path fill="#54a5ae" stroke="black"
			      stroke-width="0.1" stroke-linecap="round" stroke-linejoin="round"
			      d="m 5.5934113,640.97733 c 4.3068117,3.3545 8.6136237,5.00625 12.9204357,6.73001 -4.273208,-0.90333 -8.42587,-0.76986 -12.9253109,-3.65551 l -1.1131766,-2.02421 z" />
			<!-- The arm -->
			<path fill="#70cbaf" stroke="black"
			      stroke-width="0.1" stroke-linecap="round" stroke-linejoin="round"
			      d="m 29.183074,663.47205 9.416902,-5.03478 c 3.70684,1.09908 4.062682,3.87365 1.305313,8.20483 l -8.950719,1.30531 0.83913,-1.49179 -2.144443,-0.27971 1.11884,-1.30531 z" />
			<!-- The extra lines -->
			<g>
				<path fill="none" stroke="black"
				      stroke-width="0.2" stroke-linecap="round" stroke-linejoin="round"
				      d="m 1.8459916,655.2611 c 9.7090334,12.4515 23.9446134,14.42597 39.2273224,13.97679" />
				<path fill="none" stroke="black"
				      stroke-width="0.2" stroke-linecap="round" stroke-linejoin="round"
				      d="m 0,671.67687 c 7.5315736,5.90071 18.552714,8.74515 31.645571,8.90031" />
			</g>
		</g>
		<g id="squirtle-4-br" transform="translate(666.6667,0)">
			<!-- The body -->
			<g>
				<path fill="#6fcbaf" stroke="black"
				      stroke-width="0.1" stroke-linecap="round" stroke-linejoin="round"
				      d="m 4.4753595,642.02762 c 1.2404809,-1.12152 2.2364517,-2.48754 4.6618328,-2.42416 1.3836627,-29.54332 38.2847267,-23.97715 43.6008217,-11.2317 2.342275,8.67535 0.157182,14.70764 -4.627899,19.25006 12.879638,25.03207 -11.905857,41.15547 -20.732472,41.36314 3.900057,2.17906 8.100397,3.75756 12.527646,4.88224 4.080015,-13.48933 24.230633,-6.11425 17.10675,6.85038 -8.459942,9.64117 -23.905004,5.53878 -32.024615,-10.2069 l -1.305313,-0.18647 c -1.919008,1.66532 -3.643866,2.89072 -7.085986,4.3868 L 9.1371923,688.3483 c -0.052425,-2.57702 2.3732697,0.29782 3.9159397,1.23001 0.399344,-1.148 0.780788,-2.31837 1.864733,-2.61062 -3.887944,1.25309 -7.9841839,-2.41742 -8.248131,-3.07213 -2.2933392,0.54596 -4.6640246,0.97589 -7.30639372,0.9983 l -5.93321148,-7.77727 c -0.024259,-2.22905 1.5337061,-0.1635 2.6539316,0.7139 0.7198038,-3.61257 2.1441277,-5.34641 3.9159396,-6.15362 -3.1153915,-8.23016 -0.25110985,-16.37365 8.7642457,-24.428 -2.0293718,-1.74042 -3.7398245,-3.48083 -4.2888862,-5.22125 z" />
				<path fill="#ba6c4e" stroke="black"
				      stroke-width="0.1" stroke-linecap="round" stroke-linejoin="round"
				      d="m 48.110115,647.62182 c 12.879638,25.03207 -11.905857,41.15547 -20.732472,41.36314 -0.359585,-0.67512 0.282492,-3.1683 -0.695114,-4.5796 4.551377,-1.38088 17.373785,-16.18568 17.621028,-24.07553 -3.062706,-3.28764 -3.79504,-6.3602 -3.352542,-7.45928 0.811177,-2.01482 5.383939,-4.70823 7.1591,-5.24873 z" />
				<path fill="#e4ddad" stroke="black"
				      stroke-width="0.1" stroke-linecap="round" stroke-linejoin="round"
				      d="m 48.110115,647.62182 c -5.10926,3.33802 -10.946732,4.15473 -3.806558,12.70801 -1.776109,11.47437 -13.011989,22.11223 -17.621028,24.07553 0.967193,2.15334 0.702804,2.48066 0.695114,4.5796 -0.921926,-0.0972 -1.533698,-0.0981 -2.264528,0.0586 1.430407,-9.01677 -6.231356,-4.93752 -10.195249,-2.07592 -3.887945,1.25309 -7.9841845,-2.41742 -8.2481315,-3.07213 C 4.2960699,682.60118 -0.56277194,673.57538 1e-6,671.67687 c -3.1153915,-8.23016 -0.2511099,-16.37365 8.7642455,-24.428 13.9798415,10.72369 20.8702415,9.94105 39.3458685,0.37295 z" />
			</g>
			<!-- The eyes -->
			<g>
				<ellipse cx="37.513184" cy="640.43561" rx="2.0678606" ry="1.944406"
					 fill="black" stroke="none" />
				<circle cx="13.844937" cy="632.71362" r="1.8459916"
					fill="black" stroke="none" />
			</g>
			<!-- The mouth -->
			<path fill="#54a5ae" stroke="black"
			      stroke-width="0.1" stroke-linecap="round" stroke-linejoin="round"
			      d="m 5.5934113,640.97733 c 4.3068117,3.3545 8.6136237,5.00625 12.9204357,6.73001 -4.273208,-0.90333 -8.42587,-0.76986 -12.9253109,-3.65551 l -1.1131766,-2.02421 z" />
			<!-- The arm -->
			<path fill="#70cbaf" stroke="black"
			      stroke-width="0.1" stroke-linecap="round" stroke-linejoin="round"
			      d="m 29.183074,663.47205 9.416902,-5.03478 c 3.70684,1.09908 4.062682,3.87365 1.305313,8.20483 l -8.950719,1.30531 0.83913,-1.49179 -2.144443,-0.27971 1.11884,-1.30531 z" />
			<!-- The extra lines -->
			<g>
				<path fill="none" stroke="black"
				      stroke-width="0.2" stroke-linecap="round" stroke-linejoin="round"
				      d="m 1.8459916,655.2611 c 9.7090334,12.4515 23.9446134,14.42597 39.2273224,13.97679" />
				<path fill="none" stroke="black"
				      stroke-width="0.2" stroke-linecap="round" stroke-linejoin="round"
				      d="m 0,671.67687 c 7.5315736,5.90071 18.552714,8.74515 31.645571,8.90031" />
			</g>
		</g>
	</g>
</svg>
